<svg width="106" height="118" viewBox="0 0 106 118" fill="none" xmlns="http://www.w3.org/2000/svg">
<path d="M98.2777 100.948C99.8208 99.4423 101.1 97.6733 102.041 95.5656C104.036 91.2749 104.224 86.1562 102.343 81.8278C99.9337 76.2951 94.6268 72.6066 91.1641 67.7137C88.9059 64.5145 87.438 60.8636 86.3089 57.1375C83.4108 47.6528 86.8358 39.523 86.7605 29.9631C86.6852 14.2681 72.0818 1.99825 57.2902 0.266919C44.945 -1.16331 31.9224 3.20266 23.3786 12.1981C14.8349 21.1935 11.184 34.7807 14.609 46.7118C15.7382 50.6638 17.6201 54.6534 16.8673 58.7183C16.1898 62.482 13.367 65.4178 10.8076 68.2406C6.44166 73.0206 2.1886 78.4028 0.946553 84.7636C-4.20981 111.223 42.9502 109.868 58.4193 109.379C70.1999 109.002 88.8682 110.207 98.2777 100.948Z" fill="url(#paint0_linear_570_541)"/>
<path d="M100.95 114.196C93.6478 116.492 85.8192 117.056 78.0658 117.32C70.3501 117.583 62.5967 117.621 54.881 117.621C44.907 117.621 34.933 117.583 24.959 117.056C17.7702 116.68 10.5814 116.04 3.61843 114.421C2.00001 114.045 0.118122 113.292 0.00520917 111.824C-0.0700662 110.884 0.682688 110.056 1.47308 109.416C6.51653 105.2 13.4419 104.447 19.8403 103.055C24.7708 102.001 29.5508 100.496 34.4437 99.2911C39.2237 98.1244 44.079 97.4845 49.0095 96.9952C59.0964 95.979 69.3339 95.6026 79.3831 96.807C88.4538 97.8609 99.1053 99.8557 104.864 107.007C105.654 107.985 106.219 109.227 105.918 110.432C105.466 112.464 102.907 113.593 100.95 114.196Z" fill="url(#paint1_linear_570_541)"/>
<path d="M32.8242 51.5292C32.8242 51.7174 32.8242 51.9432 32.8242 52.1314C32.8619 54.6531 32.9371 56.3092 33.0124 57.2878C33.05 58.0782 33.1253 58.4545 33.1253 58.4545C33.1253 58.4545 33.163 58.4922 33.2759 58.6051C33.7275 59.0944 35.1954 60.9386 35.5718 63.8367C35.5718 63.8367 35.5341 63.9496 35.4212 64.1002L36.2493 63.0463L36.4751 62.7452L38.1688 60.5246L39.4485 67.5252L39.6743 68.8049L40.5023 73.3967C41.3303 74.3 42.0831 75.0904 42.6477 75.6926C42.7229 75.7679 42.7982 75.8808 42.8735 75.9561C42.9111 75.9937 42.9864 76.069 43.024 76.1066C43.3251 75.542 43.5886 75.0528 43.8144 74.6764C44.6048 73.3591 45.2823 72.3052 45.8845 71.4772C45.9598 71.3643 46.0351 71.2513 46.1103 71.1761C47.1642 69.7082 47.9922 68.9931 48.6697 68.692C48.7826 68.6543 48.9332 68.6167 49.0837 68.5791C49.159 68.5791 49.2343 68.5414 49.3095 68.5414C50.1752 68.3909 51.4173 68.3532 52.2829 68.3909C52.3582 68.3909 52.4335 68.3909 52.5087 68.3909H52.5464C52.998 68.3909 53.2615 68.4285 53.2615 68.4285C53.9766 68.692 54.7294 69.1813 55.4821 69.8211C55.5574 69.8964 55.6327 69.934 55.708 70.0093C56.0843 70.348 56.4607 70.6868 56.8371 71.0632C57.4393 71.6654 58.0791 72.3805 58.6813 73.0956C58.7566 73.1709 58.8319 73.2838 58.9072 73.3591C59.961 74.6011 60.9772 75.8808 61.8805 77.0476C61.9558 77.1605 62.0311 77.2357 62.1064 77.3487C62.2945 77.5745 62.4827 77.8379 62.6709 78.0638C63.4613 79.0423 64.2893 80.1338 65.0797 81.1501C65.155 81.263 65.2303 81.3382 65.3056 81.4512C66.6982 83.2954 67.9026 84.9138 68.2789 85.4408C68.3542 85.5537 68.3919 85.5913 68.3919 85.5913H71.2523C71.2523 85.5913 69.8221 82.0534 68.5048 78.5531C68.4295 78.3272 68.3542 78.139 68.2789 77.9132C67.2627 75.1657 66.3218 72.5687 66.2465 71.8535C66.096 70.1975 66.8863 59.5084 66.0207 54.0886C65.8325 52.8465 65.569 51.755 65.2679 50.8517C65.1927 50.6259 65.1174 50.4377 65.0421 50.2119C64.327 48.3676 63.3108 47.2761 62.0687 46.6363C61.9934 46.5987 61.9182 46.561 61.8429 46.5234C61.4289 46.3352 60.9772 46.1846 60.4879 46.0341C59.9986 45.9212 59.4341 45.8459 58.8695 45.7706C58.7942 45.7706 58.719 45.7706 58.6437 45.7706C57.7027 45.733 56.6489 45.7706 55.6703 45.8459C55.595 45.8459 55.5198 45.8459 55.4445 45.8459C54.2777 45.9588 53.2239 46.0717 52.4711 46.1846C52.3958 46.1846 52.3206 46.1846 52.2453 46.2223C51.9818 46.2599 51.7936 46.2599 51.6431 46.2599C51.1914 46.2599 50.6269 46.1846 50.0999 46.0717C49.7988 46.0341 49.4977 45.9588 49.2719 45.9212C49.1966 45.8835 49.0837 45.8835 49.0461 45.8835C48.8202 45.8459 48.6697 45.8083 48.7073 45.8083C48.7073 45.8083 48.218 47.6525 46.0727 48.2547C46.0351 48.2547 45.9974 48.2547 45.9974 48.2923C45.9598 48.2923 45.8845 48.33 45.8469 48.33C44.2661 48.744 43.3628 48.6687 42.8735 48.4053C42.7606 48.3676 42.6853 48.2924 42.6477 48.2171C42.61 48.1794 42.5348 48.1042 42.4971 48.0289C42.4218 47.9536 42.3466 47.7654 42.2336 47.5396C42.1207 47.3138 41.9702 47.0503 41.8196 46.7492C41.8196 46.7492 40.8787 47.0127 39.6743 47.4267C39.599 47.4643 39.5237 47.4643 39.4485 47.502C38.5075 47.8031 37.416 48.2171 36.5127 48.5935H36.4751C36.3998 48.6311 36.3245 48.6687 36.2493 48.7064C36.2116 48.7064 36.174 48.744 36.1363 48.744C35.0825 49.3086 34.0286 50.3248 33.2759 51.1905C33.2006 51.2657 33.1253 51.3786 33.05 51.4539C32.9371 51.3786 32.8995 51.4539 32.8242 51.5292Z" fill="white"/>
<path d="M34.4815 35.5331C34.5191 34.5922 33.6535 29.4358 34.9331 29.4358C36.7398 29.4358 37.5302 30.1133 37.7936 30.3767C37.8689 30.452 37.9065 30.5273 37.9065 30.5273C37.9065 30.5273 37.9065 30.5273 37.9065 30.4896C37.9442 30.4144 38.1324 30.2262 38.3958 29.9627C38.4711 29.8874 38.5464 29.8122 38.6216 29.7369C39.2615 29.1347 40.3153 28.4196 41.6703 28.269C43.9662 28.0056 45.0201 29.2476 45.6223 30.8284C46.2621 32.4092 47.203 34.2158 47.203 34.2158C47.5041 33.6136 48.1063 33.0114 48.7838 33.0867C48.8215 31.5059 48.6333 28.6078 47.1278 26.5001C46.4879 25.6344 45.8104 24.6934 44.7942 24.2418C43.6651 23.7525 42.3478 23.6019 41.1434 23.8278C41.0305 23.8654 40.9175 23.8654 40.8423 23.8654C40.6917 23.8654 40.5035 23.7901 40.353 23.7149C38.998 23.1879 37.342 23.5267 36.2881 24.4676C36.1376 24.5805 35.987 24.7311 35.7988 24.8064C35.2343 24.9569 34.6697 24.9193 34.1051 25.1451C33.5406 25.3709 33.0513 25.7849 32.6749 26.2742C31.7339 27.7045 29.2875 33.2372 34.4815 35.5331Z" fill="#2E338E"/>
<path d="M48.7837 36.6626C49.7246 38.5068 48.3697 40.05 47.4664 39.7489L46.9395 37.3024L48.7837 36.6626Z" fill="#2E338E"/>
<path d="M48.7084 45.6581H48.6708C48.6708 45.8086 48.6332 45.9592 48.5579 46.1473C48.031 47.1259 47.1277 47.841 46.0362 48.1421C43.8908 48.7067 42.9499 48.4809 42.5735 47.9163L42.5359 47.8787C42.3477 47.5776 42.1971 47.3141 42.0466 47.013C41.7831 46.4861 41.5573 45.9215 41.2938 45.3946C41.1809 45.1311 41.0304 44.8677 40.9551 44.6042C40.9551 44.5666 40.9551 44.5666 40.9551 44.5289C40.9551 44.4913 40.9927 44.4913 40.9927 44.4913C41.5573 44.2655 42.1595 44.0773 42.7617 43.9644C43.5144 43.7762 44.3048 43.6256 45.0576 43.3622C45.434 43.2492 45.7727 43.0987 46.1491 42.9105C46.3373 42.8352 46.4878 42.7223 46.6384 42.6094C46.7889 42.5341 46.9395 42.3083 47.0524 42.4588C47.3535 42.7599 47.504 43.2869 47.7299 43.6633C47.7675 43.7009 47.7675 43.7762 47.8051 43.8138C48.031 44.2278 48.2192 44.6418 48.445 45.0559C48.5955 45.3193 48.6708 45.5075 48.7084 45.6581C48.7084 45.6204 48.6708 45.6204 48.7084 45.6581Z" fill="#F2B4A7"/>
<path d="M47.7661 43.7381C45.9218 46.7115 43.0614 46.9749 42.0075 46.9749C41.744 46.448 41.5182 45.8834 41.2548 45.3565C41.1418 45.093 40.9913 44.8296 40.916 44.5661C40.916 44.5285 40.916 44.5285 40.916 44.4908C40.916 44.4532 40.9537 44.4532 40.9537 44.4532C41.5182 44.2274 42.1204 44.0392 42.7226 43.9263C43.4754 43.7381 44.2658 43.5875 45.0185 43.3241C45.3949 43.2112 45.7336 43.0606 46.11 42.8724C46.2982 42.7971 46.4488 42.6842 46.5993 42.5713C46.7499 42.496 46.9004 42.2702 47.0133 42.4208C47.3144 42.7219 47.465 43.2488 47.6908 43.6252C47.7284 43.6628 47.7284 43.7004 47.7661 43.7381Z" fill="#E29488"/>
<path d="M33.2764 33.6513C33.8034 35.4203 34.3303 37.1893 34.8949 38.9582C35.1583 39.8239 35.4218 40.6896 35.8358 41.48C37.6048 44.905 42.7611 46.9751 45.9227 44.1899C46.2614 43.8888 47.24 42.9855 47.24 42.4962C47.24 42.4585 47.2777 42.4585 47.2777 42.4209C48.3315 40.3508 47.767 37.942 47.767 37.942C47.767 37.942 48.5573 38.0926 49.3477 37.528C50.1381 36.9634 50.7403 35.2321 49.837 33.8019C49.5359 33.3126 49.1972 33.1244 48.8584 33.0868C48.2186 33.0115 47.6164 33.6137 47.2777 34.2159C47.2777 34.2159 46.3367 32.3716 45.6969 30.8285C45.3205 29.8499 44.643 28.7208 43.5515 28.4197C42.2718 28.0809 40.7663 28.2691 39.5619 28.8337C38.8468 29.1724 38.1693 29.6994 37.3789 29.6617C37.1155 29.6617 36.8144 29.5864 36.5509 29.5112C35.6852 29.3606 34.5185 29.2101 33.7657 29.7746C32.599 30.6779 32.9377 32.4846 33.2764 33.6513C33.2764 33.6137 33.2764 33.6513 33.2764 33.6513Z" fill="#F2B4A7"/>
<path d="M28.9862 66.6594C30.4165 66.8475 31.5456 66.697 32.4489 66.3583C34.1802 65.7561 35.0835 64.5893 35.4223 64.1C35.5352 63.9494 35.5728 63.8365 35.5728 63.8365C35.1212 60.3739 33.1264 58.4543 33.1264 58.4543C33.1264 58.4543 33.0887 58.0027 33.0135 56.9865C33.0135 56.9112 33.0135 56.8359 33.0135 56.7983C32.9382 55.7821 32.9005 54.2766 32.8629 52.1312C32.8629 51.943 32.8629 51.7172 32.8629 51.529C32.8253 47.163 32.8253 42.6841 32.8629 41.7808C32.9005 40.8399 35.0459 38.3182 34.8953 37.0761C34.8201 36.6245 34.5942 36.1352 34.2931 35.6835C33.7662 34.8931 33.0511 34.2157 32.6747 33.8769C32.0349 33.3124 32.8253 31.0917 32.6747 29.6615C32.5242 28.3065 32.2607 28.3065 31.4703 28.5324C31.4327 28.5324 31.3574 28.57 31.3198 28.57C30.4165 28.8335 29.2873 31.7692 29.1368 32.7478C28.9862 33.7264 30.0401 36.6621 30.0024 37.4149C30.0024 37.4149 26.0128 51.115 25.4859 54.5024C24.8837 57.8521 24.018 66.0572 28.9862 66.6594Z" fill="#F2B4A7"/>
<path d="M42.6488 76.8215C42.5358 77.0097 42.4606 77.1979 42.3477 77.4237C42.4982 77.1602 42.6488 76.8968 42.7617 76.6333C42.724 76.6709 42.6864 76.7462 42.6488 76.8215Z" fill="#01406E"/>
<path d="M42.9875 76.2197C42.9123 76.3326 42.837 76.4832 42.7617 76.6337C42.7994 76.5585 42.837 76.4456 42.9123 76.3703C42.9123 76.295 42.9499 76.2574 42.9875 76.2197Z" fill="#0086A9"/>
<path d="M25.5992 96.1671C27.481 97.7479 31.9599 96.0542 31.9599 96.0542C31.9599 96.0542 32.5998 95.1133 33.5031 92.3281C34.4064 89.5429 35.6108 83.4832 35.6108 83.4832C35.6108 83.4832 35.6108 83.4832 35.6108 83.5208C35.6861 83.709 36.4388 85.1769 37.5303 87.2093C38.4336 85.3651 39.3369 83.4832 40.2402 81.7142C41.0306 80.1334 41.7834 78.6656 42.4232 77.4235C42.5738 77.1601 42.6867 76.8966 42.8372 76.6331C42.8749 76.5579 42.9125 76.4826 42.9501 76.3697C42.9878 76.332 42.9878 76.2568 43.0254 76.2191C43.0631 76.1815 43.0631 76.1439 43.1007 76.1062C42.6114 75.5793 41.8587 74.7889 40.993 73.848C40.8424 73.6974 40.7295 73.5468 40.579 73.3963C39.2993 72.0413 37.7938 70.4606 36.5517 69.2185C33.6536 66.2828 31.1695 66.3957 29.0242 66.6968C26.8788 66.9979 25.825 69.482 25.6368 74.1867C25.5992 75.2782 25.5615 77.0472 25.5615 79.1172C25.4486 85.9297 25.5992 96.1671 25.5992 96.1671Z" fill="#4C4384"/>
<path d="M72.6834 92.6293C72.6834 92.8551 72.6458 93.081 72.6458 93.3068C72.2318 97.7104 68.5057 101.549 63.8762 101.625C62.1825 101.662 60.7899 101.361 59.6608 100.872L59.3973 100.759C59.2091 100.797 58.9833 100.834 58.7575 100.872C56.3487 101.324 53.9399 101.7 51.4934 101.549C48.4824 101.361 45.3961 100.345 43.3637 98.1244C43.0626 97.7857 42.7991 97.4469 42.5733 97.0329C40.3527 98.9148 38.4708 100.232 38.4708 100.232C38.4708 100.232 36.4383 100.157 34.5564 98.6514C33.9542 98.1621 33.3897 97.5599 32.9004 96.7318C32.9004 96.7318 35.0457 92.2153 37.4922 87.2095C39.1859 83.7468 41.0301 80.0207 42.3475 77.386C42.6109 76.8968 42.8367 76.4827 43.0249 76.0687C43.326 75.5042 43.5895 75.0149 43.8153 74.6385C43.9659 74.375 44.1164 74.1116 44.3046 73.8481C44.4175 73.6599 44.5304 73.4717 44.6434 73.2835C46.4876 70.3102 47.7296 69.0305 48.7082 68.6165C49.7997 68.1272 53.3 68.3154 53.3 68.3154C53.9775 68.5788 54.655 69.0305 55.4077 69.595C57.9295 71.6651 60.7146 75.3912 62.7471 77.913C65.3441 81.1498 68.5057 85.4405 68.5057 85.4405H71.3661C71.3661 85.4781 72.8716 88.6021 72.6834 92.6293Z" fill="#4C4384"/>
<path d="M25.4492 99.2916C26.0514 99.6304 26.8794 99.8562 27.7451 100.007C28.6861 100.195 29.627 100.233 30.3045 100.12V100.082C30.2668 99.7809 31.6218 96.6193 31.9605 95.9795C31.9605 95.9795 30.1539 96.657 28.3473 96.7322C27.3311 96.7699 26.3149 96.6193 25.5998 96.0548L25.5245 99.1411L25.4492 99.2916Z" fill="#F2B4A7"/>
<path d="M30.4551 100.759C30.7938 101.399 31.6595 101.926 32.6757 102.302C33.5037 102.603 34.407 102.829 35.1598 102.905C35.5738 102.415 37.3428 101.249 38.4343 100.195C38.4343 100.195 36.6653 100.119 34.934 98.915C34.2188 98.4257 33.4661 97.7106 32.8639 96.6943C32.9015 96.732 30.6809 100.383 30.4551 100.759Z" fill="#F2B4A7"/>
<path d="M35.271 105.878C35.271 106.367 35.2333 106.744 35.0452 106.857C34.6688 107.12 28.5715 107.421 24.9959 107.534H24.9583C24.6195 107.534 24.2808 107.572 23.9797 107.572C23.528 107.572 23.3022 107.12 23.4904 106.781C23.528 106.744 23.5657 106.668 23.6033 106.631C25.7486 104.824 30.0393 101.173 30.3781 100.797L30.4157 100.759C30.4157 100.759 30.4157 100.759 30.4157 100.722C31.0179 101.851 33.3891 102.716 35.1204 102.867C35.0828 102.905 35.0452 102.98 35.0452 103.018C34.9699 103.356 35.271 104.862 35.271 105.878Z" fill="#55BEE2"/>
<path d="M30.4555 100.797C30.4555 100.797 30.4179 100.797 30.4555 100.797C30.4179 100.835 30.4179 100.835 30.4179 100.835C30.1168 101.249 27.181 104.862 25.7508 106.631C25.2991 107.195 24.998 107.572 24.998 107.572H24.9604L19.5029 107.873C19.0889 107.911 18.7878 107.534 18.8254 107.158C18.8254 107.045 18.9007 106.932 18.976 106.857L25.4497 99.3291C26.6917 100.007 29.0253 100.383 30.3049 100.195C30.3049 100.308 30.3802 100.534 30.4555 100.797Z" fill="#55BEE2"/>
<path d="M23.8299 75.5794C23.8299 75.6923 23.8676 75.8429 23.8676 75.9558C23.9052 76.1816 23.9805 76.3698 24.0558 76.558C24.0934 76.6333 24.0934 76.6709 24.131 76.7085C24.2816 76.9344 24.4698 77.1226 24.6956 77.2355C24.7332 77.2731 24.8085 77.2731 24.8461 77.3107C25.0343 77.3484 25.2225 77.386 25.4484 77.3484C27.5937 77.1978 29.6638 73.7351 29.6638 73.7351C29.6638 73.7351 30.8305 73.6975 34.8201 73.2082C38.8474 72.7566 47.0148 71.4393 50.1763 70.0843C53.3755 68.7293 57.4404 65.1538 58.1555 64.0246C58.1555 64.0246 58.1555 62.7449 56.3489 59.8845C56.236 59.6963 56.0854 59.5081 55.9725 59.3199C53.7895 56.0831 50.7409 55.1045 50.7409 55.1045C50.7409 55.1045 46.4125 61.6911 45.9985 61.804C45.5845 61.9169 30.1154 67.412 27.5561 68.4282C24.9967 69.4821 25.4483 70.009 24.4698 72.192C24.0558 73.2459 23.7547 74.5256 23.8299 75.5794Z" fill="#F2B4A7"/>
<path d="M41.5573 35.5706C41.8207 36.2857 42.2724 36.7373 42.5735 36.6244C42.9122 36.5115 42.9499 35.834 42.6864 35.1566C42.423 34.4414 41.9713 33.9898 41.6702 34.1027C41.3691 34.2156 41.3315 34.8931 41.5573 35.5706Z" fill="#2E338E"/>
<path d="M36.8896 37.3772C37.1531 38.0923 37.6047 38.544 37.9058 38.4311C38.2445 38.3182 38.2822 37.6407 38.0187 36.9632C37.7553 36.2481 37.3036 35.7964 37.0025 35.9093C36.7014 36.0223 36.6261 36.6621 36.8896 37.3772Z" fill="#2E338E"/>
<path d="M61.8807 26.7631C61.2032 26.6502 60.7892 25.9727 60.9021 25.2953C61.4666 22.4348 63.3862 21.3057 65.0799 20.3271C66.9241 19.2356 68.6931 18.257 69.3329 14.9073C69.8599 12.1597 68.0909 9.52506 65.3433 8.9605C62.5958 8.43357 59.9611 10.2025 59.3966 12.9501C59.2837 13.6276 58.6062 14.0416 57.9287 13.9287C57.2512 13.8158 56.8372 13.1383 56.9501 12.4608C57.7405 8.39593 61.6925 5.72365 65.795 6.51405C69.8599 7.30444 72.5321 11.2564 71.7417 15.3589C70.8761 19.8002 68.3543 21.268 66.3219 22.4348C64.7788 23.3381 63.6496 23.9779 63.3109 25.7469C63.198 26.462 62.5581 26.876 61.8807 26.7631Z" fill="#2E3281"/>
<path d="M61.1284 31.9199C61.8767 31.9199 62.4834 31.3132 62.4834 30.5649C62.4834 29.8166 61.8767 29.21 61.1284 29.21C60.3801 29.21 59.7734 29.8166 59.7734 30.5649C59.7734 31.3132 60.3801 31.9199 61.1284 31.9199Z" fill="#2E3281"/>
<path d="M50.8164 55.0673C51.1551 54.2017 51.6444 53.4113 52.1337 52.6585C52.623 51.9058 53.1499 51.153 53.8274 50.5132C53.4887 51.3789 52.9994 52.1692 52.5101 52.922C52.0208 53.6747 51.4562 54.3899 50.8164 55.0673Z" fill="#2E338E"/>
<path d="M43.0255 76.1064C42.6491 77.085 42.2351 78.026 41.7834 78.9669C41.3694 79.9079 40.9178 80.8488 40.4285 81.7897C39.9768 82.7307 39.4875 83.634 38.9982 84.5373L38.2455 85.8922C37.982 86.3439 37.7185 86.7956 37.4551 87.2472C37.6433 86.7579 37.8691 86.3063 38.0573 85.817L38.6971 84.3867C39.1111 83.4458 39.5628 82.5049 40.0521 81.6016C40.5037 80.6606 40.993 79.7573 41.4823 78.854C41.9716 77.8754 42.4985 76.9721 43.0255 76.1064Z" fill="#091472"/>
<path d="M33.1262 58.4546C33.3144 59.4332 33.3897 60.3741 33.3897 61.3527C33.3897 61.842 33.352 62.3313 33.2768 62.8206C33.2015 63.3099 33.1262 63.7991 32.9004 64.2508C32.938 63.7615 32.9004 63.2722 32.9004 62.8206C32.9004 62.3313 32.9004 61.842 32.9004 61.3903C32.938 60.4118 32.938 59.4332 33.1262 58.4546Z" fill="#E29488"/>
<path d="M30.4547 100.797C29.2503 102.077 27.9706 103.243 26.6533 104.372C25.336 105.502 23.981 106.631 22.5508 107.609C23.7552 106.33 25.0349 105.163 26.3522 104.034C27.6695 102.905 29.0245 101.775 30.4547 100.797Z" fill="#30A6C6"/>
<path d="M42.5352 97.0332C44.5676 95.3771 46.3742 93.4576 47.955 91.3875C48.7454 90.3337 49.4605 89.2422 50.0251 88.0754C50.6273 86.9086 51.1166 85.7042 51.4177 84.4622L51.5682 83.7471L51.794 84.4246C52.2833 85.8924 52.7726 87.3226 53.2619 88.7905L54.6921 93.1565L55.4073 95.3395C55.5202 95.7159 55.6331 96.0546 55.7836 96.431C55.9342 96.7697 56.0847 97.1085 56.2729 97.4472C56.988 98.7645 58.0043 100.007 59.3592 100.722C58.6441 100.421 58.0043 99.9689 57.4773 99.4044C56.9128 98.8774 56.4611 98.2376 56.0471 97.5601C55.8589 97.2214 55.6707 96.8826 55.5202 96.5062C55.3696 96.1675 55.2191 95.7911 55.1062 95.4148L54.3534 93.2318L52.8855 88.8658C52.3962 87.3979 51.9446 85.9301 51.4553 84.4998H51.8693C51.5306 85.7795 51.0413 87.0216 50.4391 88.1883C49.7992 89.3551 49.0465 90.4466 48.2561 91.4628C47.4281 92.479 46.5624 93.4576 45.6214 94.3985C44.6052 95.4148 43.589 96.2804 42.5352 97.0332Z" fill="#091472"/>
<path d="M68.5059 85.4785C69.1833 86.0054 69.7479 86.6076 70.2748 87.2851C70.5383 87.6239 70.8018 87.9626 70.9899 88.339C71.2158 88.7154 71.404 89.0917 71.5545 89.5058L70.7265 88.5648C70.463 88.2637 70.1996 87.925 69.9361 87.5862C69.4092 86.9088 68.9199 86.2313 68.5059 85.4785Z" fill="#091472"/>
<defs>
<linearGradient id="paint0_linear_570_541" x1="52.1165" y1="1.73652" x2="52.1165" y2="126.849" gradientUnits="userSpaceOnUse">
<stop stop-color="white"/>
<stop offset="0.3771" stop-color="#D8F1FB"/>
<stop offset="0.7828" stop-color="#B5E5F8"/>
<stop offset="1" stop-color="#A7E0F7"/>
</linearGradient>
<linearGradient id="paint1_linear_570_541" x1="52.9991" y1="121.228" x2="52.9991" y2="92.9683" gradientUnits="userSpaceOnUse">
<stop stop-color="white"/>
<stop offset="1" stop-color="#F6C749"/>
</linearGradient>
</defs>
</svg>
