<svg width="114" height="128" viewBox="0 0 114 128" fill="none" xmlns="http://www.w3.org/2000/svg">
<path d="M6.2393 108.452C4.60976 106.822 3.22464 104.948 2.16544 102.667C0.0470263 98.0635 -0.156665 92.5638 1.83953 87.9196C4.40606 81.9718 10.1095 78.0201 13.8574 72.7241C16.261 69.302 17.8498 65.3504 19.072 61.358C22.2089 51.1733 18.5016 42.4145 18.5831 32.1891C18.6646 15.3233 34.349 2.12399 50.2371 0.29075C63.5179 -1.25732 77.4912 3.42763 86.6982 13.1234C95.9051 22.8192 99.816 37.4037 96.1088 50.2364C94.8866 54.4732 92.8497 58.7915 93.6645 63.1505C94.3978 67.1836 97.4124 70.3612 100.183 73.3759C104.908 78.5497 109.43 84.2939 110.775 91.138C116.356 119.492 65.677 118.066 49.0556 117.537C36.3859 117.129 16.3832 118.392 6.2393 108.452Z" fill="url(#paint0_linear_570_573)"/>
<path d="M108.452 123.484C100.589 125.969 92.1972 126.54 83.8866 126.866C75.5759 127.151 67.2652 127.192 58.9545 127.192C48.2402 127.192 37.4852 127.151 26.8117 126.58C19.1121 126.173 11.3717 125.481 3.87581 123.769C2.16479 123.362 0.127854 122.588 0.00563837 120.999C-0.075839 119.981 0.738932 119.085 1.59444 118.392C7.01269 113.87 14.4679 113.055 21.3527 111.548C26.6487 110.407 31.7818 108.778 37.0371 107.515C42.1702 106.252 47.4254 105.6 52.7215 105.03C63.5579 103.93 74.5574 103.522 85.3939 104.826C95.1712 105.967 106.578 108.085 112.77 115.825C113.626 116.885 114.237 118.229 113.911 119.533C113.341 121.651 110.57 122.833 108.452 123.484Z" fill="url(#paint1_linear_570_573)"/>
<path d="M68.6912 46.2439C68.5283 49.0141 65.5951 53.2102 65.5951 53.2102C65.5951 53.2102 65.2692 52.4769 64.7396 51.7843C64.4137 51.3362 64.047 50.9288 63.5989 50.6844C62.5805 50.1141 62.1323 50.0326 62.0916 50.0326L60.9102 50.1548L59.9732 50.2363L59.5251 49.9104L57.4881 48.3216C57.9362 48.1993 58.6695 47.9549 59.3621 47.8327C59.9732 47.7105 60.5843 47.629 60.9509 47.7105C60.9509 47.7105 61.2361 44.5736 60.5843 41.0701C60.2991 39.4405 59.8917 38.3813 59.4436 37.648C59.0362 36.9555 58.5881 36.5888 58.1807 36.4666C58.0992 36.4259 58.0585 36.4259 57.977 36.3851C57.5696 36.3037 56.3474 36.2222 55.166 36.1407C55.6549 35.4889 56.0623 34.7963 56.2252 34.063C56.3067 33.6964 56.3474 33.3297 56.3474 32.9631C56.8363 32.8816 57.3252 32.6779 57.4066 32.352C57.4881 32.0668 57.6918 31.2928 57.8955 30.478C57.977 30.9262 60.5435 31.7002 62.8656 32.6372C65.1877 33.6149 67.8765 35.2445 68.2839 36.3851C68.4468 36.8333 68.569 37.9739 68.6505 39.3591C68.732 41.6404 68.7727 44.5329 68.6912 46.2439Z" fill="white"/>
<path d="M53.6592 17.4822C52.4778 17.197 51.1742 17.8896 50.7261 18.9895C50.4002 19.8043 50.4816 20.7005 50.5631 21.556C50.6446 22.4115 50.6853 23.2263 50.6853 24.0818C50.6853 24.4892 50.6853 24.9373 50.6853 25.3447C50.6853 25.7114 50.6446 26.0373 50.7261 26.3632C51.0112 27.5446 51.7445 28.6038 52.763 29.2556C52.9667 29.3779 53.1704 29.5001 53.4148 29.5408C53.5778 29.5815 53.7407 29.5815 53.9444 29.5408C54.4333 29.5001 54.9221 29.5001 55.411 29.4593C56.3887 29.4186 57.3665 29.3779 58.2627 29.0112C59.159 28.6446 59.9737 27.952 60.1774 27.015C60.2589 26.6076 60.2589 26.1595 60.2996 25.7114C60.3811 25.304 60.3811 24.8966 60.4219 24.4892C60.4626 24.204 60.4219 23.3485 60.6663 23.1041C60.8293 22.9411 60.9107 22.4523 60.9515 22.2079C61.0329 21.8412 61.1552 21.5153 61.2366 21.1079C61.4811 20.2931 61.4811 19.3969 61.2366 18.5821C61.1552 18.2562 61.033 17.971 60.8293 17.7266C60.5033 17.3192 60.0552 17.034 59.5664 16.7896C58.7516 16.423 57.8553 16.1785 56.9591 16.2193C56.0628 16.26 55.1666 16.5859 54.5148 17.197C54.3925 17.3192 54.2703 17.4414 54.1074 17.4414C54.0259 17.4414 53.9037 17.4007 53.8222 17.4007C53.7407 17.5229 53.7 17.5229 53.6592 17.4822Z" fill="#2E338E"/>
<path d="M58.505 27.7896C58.3828 28.2377 58.2605 28.8488 58.0976 29.4598C58.0569 29.7043 57.9754 29.9487 57.9346 30.1931C57.8939 30.3154 57.8532 30.4783 57.8124 30.6005C57.6495 31.3746 57.4865 32.0264 57.405 32.3115C57.2013 33.0856 55.2866 33.2078 54.7163 32.9226C54.6755 32.9226 54.6755 32.8819 54.6348 32.8819C54.4311 32.6782 54.1867 31.619 54.0237 30.6005C54.0237 30.519 53.983 30.4376 53.983 30.3561C53.9015 29.8265 53.82 29.3376 53.7793 29.0525C53.8608 29.1339 53.983 29.1747 54.0645 29.2154C55.2459 29.7857 57.2421 29.2969 58.505 27.7896Z" fill="#F2B4A7"/>
<path d="M58.5072 27.7896C58.385 28.2377 58.2628 28.8488 58.0998 29.4598C57.4887 29.908 56.7555 30.1931 55.9814 30.3561C55.4111 30.4783 54.6778 30.6005 54.0667 30.5598C54.0667 30.4783 54.026 30.3968 54.026 30.3154C53.9445 29.7858 53.863 29.2969 53.8223 29.0117C53.9037 29.0932 54.026 29.1339 54.1074 29.1747C55.2481 29.7857 57.2443 29.2969 58.5072 27.7896Z" fill="#E29488"/>
<path d="M46.9365 112.078H38.748C38.748 112.078 40.2146 111.304 41.722 110.489C42.8219 109.919 43.9219 109.308 44.5329 108.982L46.6921 108.778L46.9365 112.078Z" fill="#091472"/>
<path d="M60.6665 22.9417C60.1776 22.9824 59.8517 23.5935 59.8517 23.5935L59.8924 22.5751C59.9332 22.0047 59.3628 21.964 58.9554 21.964C58.3444 21.964 57.774 21.9232 57.1629 21.7603C56.4297 21.5973 55.7371 21.2307 55.2075 20.7011C54.7594 20.2122 54.4742 19.6419 54.0261 19.153C53.7409 18.8678 52.5187 20.0493 52.315 20.2937C51.8262 20.864 51.5003 21.5158 51.3373 22.2491C51.2966 22.5343 51.3373 22.7787 51.3373 23.0232C51.3373 23.3491 51.2558 23.6343 51.3373 23.9194C51.3373 23.9194 51.1336 22.901 50.5225 23.2269C49.9115 23.512 49.83 25.0194 50.5225 25.5897C51.2151 26.16 51.7854 25.8341 51.7854 25.8341C51.7854 25.8341 52.6002 28.6044 53.9853 29.5414C54.0668 29.6228 54.189 29.6636 54.2705 29.7043C55.3297 30.1932 57.2037 29.7451 58.4258 28.4414C58.9962 27.8303 59.4443 27.0156 59.5665 25.9971C59.5665 25.9971 60.4628 26.0378 60.9516 25.0601C61.4405 24.1231 61.1553 22.901 60.6665 22.9417Z" fill="#F2B4A7"/>
<path d="M71.7058 112.077H63.1914C63.1914 112.077 63.2729 110.611 63.2729 109.511C63.2729 109.022 63.2729 108.615 63.2321 108.37C63.3136 108.655 63.3544 108.778 63.3544 108.778C63.5988 108.737 65.3506 109.022 65.595 108.167L66.369 108.655L71.7058 112.077Z" fill="#091472"/>
<path d="M63.5579 65.2291C63.069 63.2329 62.6209 61.6034 62.2135 60.7886C60.6247 57.611 60.0951 56.1037 60.0951 56.1037L47.3846 60.3812C46.4069 62.4996 45.144 65.0662 45.8773 70.8511C46.5698 76.636 49.2586 84.2133 49.2586 84.2133C49.2586 84.2133 47.5476 86.7391 48.0772 92.1574C48.1994 93.3388 48.4438 94.8054 48.7697 96.3535L46.6513 108.982C46.5698 109.186 46.3254 109.268 46.0402 109.308C45.4292 109.431 44.5329 109.227 44.4922 108.982C44.4514 108.575 41.7219 98.5534 42.1293 92.1166C42.5367 85.6799 44.8588 81.2394 44.8588 81.2394C44.8588 81.2394 43.7181 76.0249 43.5144 70.1178C43.27 64.2107 44.3292 61.97 45.6736 58.8739L62.5801 54.4741C62.5801 54.4741 62.9875 55.7778 63.2727 60.9923C63.3542 62.0108 63.4356 63.5181 63.5579 65.2291Z" fill="#4C4384"/>
<path d="M66.6535 99.8562C66.4091 103.4 65.7572 107.637 65.5943 108.208C65.3499 109.022 63.5981 108.737 63.3537 108.819C63.3129 108.819 63.2722 108.656 63.1907 108.33C62.4574 105.356 59.5242 89.7938 58.7502 86.3717C58.6687 85.9643 58.5873 85.7199 58.5873 85.7199C58.4243 85.5977 56.1837 77.5314 54.7578 72.3576L54.7986 68.3652C54.7986 68.3652 61.113 85.0681 61.113 85.6792C61.113 86.0458 61.113 88.042 61.7649 90.5678C62.1722 92.2381 62.9055 94.1528 64.087 95.9453C64.8203 97.086 65.7572 98.4304 66.6535 99.8562Z" fill="#4C4384"/>
<path d="M54.6356 112.078H49.0137C49.0137 112.078 51.458 109.43 52.3542 108.778C52.4357 108.86 52.5987 108.941 52.8024 108.941C53.4542 109.023 54.4727 108.778 54.4727 108.778L54.6356 112.078Z" fill="#D85D74"/>
<path d="M74.5563 107.719C74.597 108.126 74.2711 108.33 73.823 108.371C73.2934 108.452 72.6009 108.289 72.3564 108.126C71.9898 107.923 69.2603 103.808 66.653 99.8564C65.7568 98.4712 64.8198 97.0861 64.0457 95.9047C61.0718 91.342 61.0718 86.2089 61.0718 85.5978C61.0718 84.9867 54.7573 68.2839 54.7573 68.2839L54.7166 72.2763L54.4314 108.778C54.4314 108.778 52.9648 109.104 52.4352 108.9C52.3537 108.86 52.313 108.819 52.2723 108.778C52.0278 108.452 49.9094 101.812 48.728 96.3528C48.4021 94.8048 48.1169 93.3382 48.0354 92.1567C47.5058 86.7792 49.2169 84.2127 49.2169 84.2127C49.1354 83.9683 46.5281 76.5538 45.8356 70.8504C45.2652 66.2877 45.917 63.7619 46.6911 61.8472C46.8948 61.3176 47.1392 60.8287 47.3429 60.3806L59.9719 56.103H60.0126C60.0126 56.103 60.0533 56.1438 60.0941 56.266C60.257 56.7141 60.7459 57.8955 61.7236 59.9325C61.8458 60.2176 62.0088 60.5028 62.1718 60.788C62.5791 61.6027 63.0273 63.1916 63.5161 65.2285C64.9013 71.0541 66.3678 80.2611 67.2233 82.9498C68.4048 86.5348 74.5563 107.719 74.5563 107.719Z" fill="#2B2C6D"/>
<path d="M42.7801 36.1411C41.8431 37.8114 38.9914 45.0221 38.5025 47.3035C38.0136 49.5849 37.9321 50.3996 38.0544 50.7256C38.1766 51.0515 38.1766 51.0515 38.1766 51.0515C38.1766 51.0515 39.6839 50.2367 41.3542 50.033C43.0245 49.8293 43.3097 50.3996 43.3097 50.3996L44.8985 38.3817L42.7801 36.1411Z" fill="white"/>
<path d="M56.2644 33.8596C56.1014 34.6744 55.694 35.4485 55.1237 36.1818C54.8792 36.1818 54.6348 36.141 54.3904 36.141C53.4534 36.1003 52.5979 36.1003 52.3127 36.1003C51.9461 36.1003 51.5387 36.0188 51.2535 35.9781C50.9683 35.8966 50.7646 35.8558 50.7646 35.8558C50.6017 36.5891 50.398 37.2817 50.0721 37.5261C49.1758 38.1372 47.75 37.241 47.75 36.8743C47.75 36.7928 47.75 36.6299 47.75 36.4262C46.9352 37.6076 46.1204 38.0557 44.6946 38.4224C44.3279 38.5039 44.002 38.6261 43.6761 38.7075C43.3095 38.3816 43.1058 37.8928 42.6169 37.3632C41.9243 36.5484 42.2095 35.6929 42.3317 34.8781C42.3725 34.6337 42.3725 34.3893 42.3725 34.1856C42.2503 33.2078 41.9244 33.1671 41.1503 31.782C40.3763 30.3969 40.7429 28.4821 41.4355 27.3007C42.128 26.1193 43.3095 25.2638 43.7169 24.1231C44.1242 22.9824 45.1834 22.6973 45.876 22.6565C45.9575 22.6565 45.9982 22.6565 46.0797 22.6565C46.1612 22.6565 46.2426 22.6565 46.3241 22.6565C46.8537 22.6973 47.3833 22.8195 47.8315 23.2676C47.8315 23.2676 48.9314 22.3713 49.9499 22.575C50.9683 22.7787 52.109 25.0194 52.3534 26.4452C52.6386 27.9118 52.1905 28.971 53.5349 29.908C54.8792 30.845 55.857 30.8042 56.2236 32.719C56.2644 32.8412 56.2644 32.9227 56.2644 33.0449C56.3458 33.2893 56.3458 33.5745 56.2644 33.8596Z" fill="#2E338E"/>
<path d="M60.5839 41.0707C59.932 37.5672 58.7914 36.5895 57.9766 36.3858C57.5692 36.2636 56.347 36.2228 55.1656 36.1413C54.9212 36.1413 54.6768 36.1006 54.4323 36.1006C53.4953 36.0599 52.6398 36.0599 52.3547 36.0599C51.6214 36.0599 50.8066 35.8154 50.8066 35.8154C50.6436 36.5487 50.4399 37.2413 50.114 37.4857C49.2178 38.0968 47.7919 37.2005 47.7919 36.8339C47.7919 36.7117 47.7919 36.5895 47.7919 36.3858C46.9772 37.5672 46.1624 38.0153 44.7365 38.382C44.3699 38.4634 44.044 38.5857 43.7181 38.6671C42.8218 38.9523 42.17 39.3597 41.7219 40.6226C41.1108 42.2929 40.9886 44.7779 41.4774 47.263C41.9663 49.7073 42.3737 50.2369 42.3737 50.2369C42.3737 50.2369 45.7143 49.7888 46.7327 50.0332C46.7327 50.0332 47.6697 54.9626 47.7919 56.144C47.8734 57.3254 47.629 58.4661 47.629 58.4661C47.629 58.4661 49.7881 60.0142 54.3101 59.1587C58.8321 58.3032 60.4209 57.1625 60.4209 57.1625C60.4209 57.1625 57.8951 51.2554 57.6099 50.5221C57.3248 49.7888 57.0803 48.4444 57.0803 48.4444C57.0803 48.4444 57.2433 48.4037 57.4877 48.3222C58.3025 48.0778 60.1765 47.5482 60.9505 47.7111C60.9505 47.7111 61.2357 44.5742 60.5839 41.0707Z" fill="#7961AA"/>
<path d="M51.0108 33.9409C50.9701 34.4298 50.8886 35.1631 50.7664 35.8149C50.7664 35.8149 50.7664 35.8149 50.7664 35.8556C50.6034 36.5889 50.3997 37.2815 50.0738 37.4852C49.1776 38.0963 47.7517 37.2 47.7517 36.8334C47.7517 36.7519 47.7517 36.5889 47.7517 36.3852C47.7517 36.263 47.711 36.1001 47.6702 35.8964C47.5888 35.489 47.3443 34.9594 46.8555 34.3076C47.5888 34.6742 48.5258 34.8779 49.585 34.5927C50.196 34.5113 50.6442 34.2668 51.0108 33.9409Z" fill="#F2B4A7"/>
<path d="M52.518 29.6234C52.2736 28.8901 51.4588 26.6902 50.97 25.5902C50.4811 24.4903 49.7071 23.594 47.9961 23.757C46.285 23.92 45.1036 25.1014 45.0629 25.9162C45.0221 26.7309 45.1036 27.9938 44.6962 28.9716C44.2888 29.9493 43.7592 30.5604 43.7592 30.5604C43.2704 30.0715 42.4963 29.5419 42.4149 30.927C42.3334 32.2714 44.0851 33.2491 44.8999 32.4751C44.8999 32.4751 45.6332 33.6565 46.9369 34.3083C47.6701 34.675 48.6071 34.8787 49.6663 34.5935C50.2367 34.4305 50.6848 34.2268 51.0515 33.9009C52.6403 32.638 52.681 30.2344 52.518 29.6234Z" fill="#F2B4A7"/>
<path d="M60.259 57.8548C60.1368 58.0585 60.0145 58.3029 59.8516 58.5474C58.0998 61.2769 53.5778 65.0248 53.5778 65.0248C53.3334 66.3285 51.9075 67.3877 50.8483 67.8765C50.7669 67.9173 50.6854 67.958 50.6039 67.9988C50.3595 68.0802 50.1558 68.1617 49.9928 68.1617C49.9521 68.1617 49.9114 68.1617 49.8706 68.1617C49.8299 68.1617 49.7891 68.1617 49.7077 68.1617C49.4632 68.2024 49.1781 68.2432 48.9744 68.2432C48.9336 68.2432 48.8929 68.2432 48.8521 68.2432C48.4855 68.2432 48.3225 68.0802 48.5262 67.6728C48.5262 67.6321 48.567 67.5914 48.567 67.5914C48.6485 67.3877 48.7299 67.2247 48.8114 67.021C49.0558 66.4914 49.341 65.9618 50.0743 65.0248C51.0928 63.7212 58.0183 53.6995 57.9369 53.2514C57.8961 53.0477 57.6924 52.2329 57.4887 51.2959C57.4073 50.9293 57.3258 50.6033 57.285 50.2367C57.1628 49.5034 57.0814 48.8516 57.1221 48.4442C57.1221 48.4442 57.4887 48.1183 58.9553 47.8331C60.3812 47.5479 60.9923 47.7109 60.9923 47.7109C60.9923 47.7109 61.033 48.3627 61.0738 49.3812C61.0738 49.7071 61.1145 50.033 61.1145 50.4404C61.1552 52.844 61.0738 56.1845 60.259 57.8548Z" fill="#F2B4A7"/>
<path d="M60.2579 57.8545C60.1356 58.0582 60.0134 58.3026 59.8505 58.547C58.5876 59.3618 57.0395 60.2581 55.7359 60.9914C54.1471 61.8876 52.9249 62.5394 52.9249 62.5394C52.9656 63.232 52.7212 64.3727 52.3138 65.3097C52.0694 65.9207 51.7435 66.4096 51.4176 66.654C50.9694 66.9392 50.562 67.2244 50.0732 67.4688C49.6251 67.6725 49.1769 67.8355 48.6881 67.754C48.6066 67.754 48.5659 67.7132 48.4844 67.6725C48.5659 67.4688 48.6473 67.3059 48.7288 67.1022C48.7695 67.1022 48.8103 67.0614 48.851 67.0614C49.014 67.0614 49.1362 67.1022 49.2991 67.1429C49.9102 67.2651 50.5213 66.817 51.0102 66.4911C51.3361 66.2874 51.6212 65.7578 51.9064 65.1467C52.2731 64.2097 52.5175 63.069 52.5175 62.3765C52.5175 62.3765 53.7397 61.7247 55.3285 60.8284C56.958 59.8914 58.9135 58.7507 60.2579 57.8545Z" fill="#E29488"/>
<path d="M61.1124 50.4403C61.0716 50.4403 61.0716 50.4403 61.1124 50.4403C61.0716 50.4811 60.9901 50.4811 60.9494 50.5218C59.9309 50.807 58.9125 51.0514 57.894 51.3366C57.7718 51.3773 57.6088 51.4181 57.4459 51.3773C57.3644 51.0107 57.2829 50.6848 57.2422 50.3181C57.5274 50.1959 57.8533 50.1144 58.1384 50.0737C58.8717 49.9107 59.605 49.8293 60.3383 49.6256C60.5828 49.5441 60.8272 49.4626 61.0716 49.4219C61.0716 49.707 61.0716 50.033 61.1124 50.4403Z" fill="#E29488"/>
<path d="M65.5937 53.2105C65.5122 53.2919 65.4308 53.4549 65.2678 53.6178C65.1863 53.6993 65.1048 53.8215 64.9826 53.9437C64.6975 54.2289 64.3715 54.5548 63.9642 54.9215C63.7605 55.0844 63.5568 55.2881 63.3531 55.4511C62.579 56.1436 61.6421 56.8769 60.6236 57.5695C59.2792 58.5065 57.1201 59.7694 55.3683 60.7471C54.9202 60.9915 54.4721 61.236 54.1054 61.4397C53.2092 61.9285 52.5981 62.2544 52.5981 62.2544C52.6388 62.7433 52.5166 63.5173 52.2722 64.2506C52.1907 64.4951 52.1092 64.7802 51.987 65.0247C51.7426 65.6357 51.4167 66.1246 51.0907 66.369C50.4797 66.7764 49.7871 67.2246 49.2983 67.3875C49.2168 67.4282 49.176 67.4282 49.0946 67.4282C49.0538 67.4282 49.0131 67.4282 49.0131 67.4282C48.9723 67.4282 48.9316 67.4282 48.8909 67.4282C48.7686 67.4282 48.6872 67.3875 48.6464 67.306C48.6057 67.1838 48.6872 67.0209 48.7686 66.9801C48.7279 67.0209 48.6872 67.0616 48.6057 67.1431C48.4835 67.2653 48.3205 67.4282 48.1983 67.5097C48.0761 67.5912 47.9946 67.6319 47.9131 67.6319C47.7094 67.5912 47.7909 67.2246 47.8317 67.0209C47.8317 66.9394 47.8724 66.8986 47.8724 66.8986C47.8724 66.8986 47.8724 66.9394 47.8317 66.9801C47.8317 66.9801 47.8317 67.0209 47.7909 67.0209C47.7502 67.1023 47.6687 67.1838 47.628 67.2653C47.5465 67.306 47.5057 67.3468 47.465 67.1838C47.3835 66.8172 47.628 63.7618 47.9539 63.0285C48.1576 62.5396 48.4427 62.2544 48.7686 62.0507C48.8094 62.01 48.8501 62.01 48.8909 61.9693C49.0538 61.847 49.176 61.8063 49.339 61.7248C49.6649 61.5619 50.6019 60.2175 51.9055 58.8731C51.987 58.7916 52.0685 58.7102 52.1092 58.6287C52.3944 58.3435 52.7203 58.0584 53.0055 57.7732C53.9425 56.9991 55.7757 55.2474 57.4867 53.6178C57.6497 53.4956 57.7719 53.3327 57.9348 53.2105C59.157 52.029 60.2162 50.9698 60.7866 50.3587C60.8273 50.318 60.868 50.2773 60.9088 50.2365C60.9902 50.1551 61.031 50.0736 61.1125 50.0328C61.1125 50.0328 61.1125 50.0328 61.1532 50.0328C61.1939 50.0328 61.1939 50.0328 61.2347 49.9921C61.4791 49.9514 62.0495 49.8291 62.6605 49.9514C62.7013 49.9514 62.7013 49.9514 62.742 49.9514C63.0272 49.9921 63.3123 50.1143 63.5975 50.2773C63.679 50.318 63.7197 50.3587 63.8012 50.3995C64.9012 51.2957 65.5937 53.2105 65.5937 53.2105Z" fill="#F2B4A7"/>
<path d="M54.6772 60.8288C54.6365 60.951 54.4735 60.951 54.3513 60.9103C54.0661 60.8695 53.7809 60.8288 53.4958 60.788C53.4143 60.951 53.5365 61.1547 53.6995 61.2769C54.2291 61.6436 54.7994 62.0102 55.2475 62.5398C55.329 62.6213 55.4105 62.7435 55.4512 62.8657C55.5327 63.1101 55.492 63.3546 55.4512 63.599C55.4512 63.6805 55.4105 63.762 55.4105 63.8027C55.329 63.9657 55.1253 64.0471 54.9624 64.0879C54.1069 64.3323 53.2106 64.4953 52.3551 64.2916C51.9884 64.2101 51.6218 64.0471 51.2551 63.8842C50.6848 63.6397 50.1552 63.3138 49.7478 62.825C49.5034 62.5398 49.2182 62.1732 48.8516 62.0102C49.0145 61.888 49.1367 61.8472 49.2997 61.7658C49.6256 61.6028 50.5626 60.2584 51.8662 58.9141C52.3144 58.9955 52.7625 59.1178 53.1291 59.3214C53.6995 59.6066 54.1476 60.0547 54.5957 60.5436C54.6365 60.6251 54.7179 60.7473 54.6772 60.8288Z" fill="#E29488"/>
<path d="M64.9828 53.9029C64.9828 53.9436 64.9828 53.9436 64.9828 53.9029C64.6976 54.188 64.3717 54.5547 63.9643 54.9213C62.0089 55.0436 60.9089 53.9436 59.9312 53.414C59.1979 53.0066 58.3831 53.1696 57.8535 53.3325C59.0757 52.1511 60.1349 51.0919 60.7052 50.4808C60.746 50.4401 60.7867 50.3993 60.8274 50.3586C60.9089 50.2771 60.9497 50.1957 61.0311 50.1549C61.0311 50.1549 61.0311 50.1549 61.0719 50.1549C61.1126 50.1549 61.1126 50.1549 61.1533 50.1142C61.4385 50.0327 62.2126 49.829 62.7014 49.9105C62.7422 49.9105 62.7014 49.992 62.5792 50.0734C62.457 50.1957 62.294 50.3179 62.3755 50.3179C64.7791 51.8252 64.9828 53.8621 64.9828 53.9029Z" fill="#E29488"/>
<path d="M64.7787 53.9031C64.7787 53.9438 64.7787 54.0253 64.738 54.0661C64.6973 54.1883 64.6158 54.3105 64.4936 54.392C64.4528 54.4327 64.4528 54.4327 64.4121 54.4327C64.3306 54.4734 64.2491 54.5142 64.1269 54.5549C64.0862 54.5549 64.0454 54.5957 64.0454 54.5957C64.0047 54.5957 63.9232 54.6364 63.8825 54.6364C62.6603 54.8401 60.9493 53.6994 60.2975 53.1291C59.6049 52.518 58.8716 52.6809 58.5865 52.8032C58.3013 52.9254 54.3089 55.5326 51.4979 55.8993C50.6832 56.0215 49.8276 56.0623 48.9721 56.0623C48.8092 56.0623 48.6462 56.0623 48.4833 56.0623C47.9944 55.2882 47.4648 54.5142 46.9759 53.9846C45.713 52.5587 44.0835 50.7662 42.8613 50.1551C42.9835 50.1551 43.1058 50.1144 43.228 50.1144C43.5131 50.0737 43.8391 50.0737 44.3279 50.0329C45.2242 49.9515 45.7945 49.9515 46.2019 49.9922C46.5685 49.9922 46.7722 50.0329 46.7722 50.0329L47.1796 51.6217C47.1796 51.6217 53.1275 51.418 55.0422 51.0514C56.9569 50.6848 59.8901 50.0329 60.0938 49.9107C60.2567 49.8292 60.8678 49.6255 61.4789 49.5033C61.6826 49.4626 61.927 49.4219 62.1307 49.3811C62.9455 49.2182 64.0047 49.1774 63.638 49.6255C63.5973 49.6663 63.5973 49.6663 63.5566 49.707C63.0677 50.0737 61.7233 50.2366 62.09 50.4403C62.4974 50.644 63.6788 51.6625 64.1269 52.355C64.4121 52.7217 64.8195 53.3735 64.7787 53.9031Z" fill="#F2B4A7"/>
<path d="M80.0573 112.077H72.1133C72.1133 112.077 72.3577 108.574 72.3577 108.126L73.4577 108.004L74.5576 107.881L80.0573 112.077Z" fill="#D85D74"/>
<path d="M55.3284 63.0285C55.3284 63.0693 55.2877 63.0693 55.2877 63.0693C55.247 63.11 55.2062 63.1507 55.1655 63.1507C54.921 63.3544 54.6359 63.3952 54.6359 63.3952C54.6359 63.3952 54.6359 63.3952 54.6766 63.3952C54.7174 63.4359 54.7988 63.4767 54.8803 63.5581C54.9211 63.6396 54.921 63.7211 54.8396 63.8433C54.8396 63.8433 54.8396 63.884 54.7988 63.884C54.7581 63.9248 54.7174 63.9655 54.6766 63.9655C54.5544 64.047 54.4322 64.0877 54.1878 64.1285C53.8211 64.1692 53.21 64.0877 52.1916 63.884C50.3583 63.4767 49.8287 62.2137 49.625 62.0101C49.4213 61.7656 46.7733 60.9916 43.9216 58.4658C41.0699 55.94 38.4626 51.9883 38.1367 51.0514C38.1367 51.0514 40.2551 49.7885 41.9254 49.9107C42.0884 49.9107 42.2106 49.9514 42.3735 49.9922C42.5365 50.0329 42.6587 50.0736 42.8217 50.1551C44.0846 50.7662 45.6734 52.5587 46.9363 53.9845C47.4251 54.5549 47.9547 55.3289 48.4436 56.0622C49.3806 57.4881 50.1546 58.9139 50.2768 58.9547C50.4805 59.0361 51.6212 59.0361 52.5989 59.4028C53.6174 59.7694 54.7174 60.7472 54.5137 60.9101L54.4729 60.9509C54.31 60.9916 53.8618 60.9509 53.4545 60.8694C53.1285 60.8286 52.8434 60.7472 52.8434 60.7472C52.8434 60.7472 52.8434 60.7472 53.3322 61.1953C53.8618 61.6434 55.6136 62.7026 55.3284 63.0285Z" fill="#F2B4A7"/>
<path d="M48.9721 56.1031C48.8092 56.1031 48.6462 56.1031 48.4833 56.1031C47.9944 55.3291 47.4648 54.555 46.9759 54.0254C45.713 52.5996 44.0835 50.8071 42.8613 50.196C42.9835 50.196 43.1058 50.1553 43.228 50.1553C43.2687 50.1553 43.2687 50.196 43.3095 50.196C44.5724 50.8071 46.1612 52.5996 47.4241 54.0254C47.9537 54.555 48.4833 55.3291 48.9721 56.1031Z" fill="#E29488"/>
<path d="M47.2234 29.5409C47.3049 29.9075 47.1826 30.2742 46.979 30.3149C46.7753 30.3557 46.5308 30.1112 46.4493 29.7446C46.3679 29.3779 46.4901 29.0113 46.6938 28.9705C46.8975 28.8891 47.1419 29.1742 47.2234 29.5409Z" fill="#2E338E"/>
<path d="M50.9696 28.482C51.0511 28.8486 50.9696 29.1745 50.7659 29.2153C50.5622 29.256 50.3178 29.0116 50.2363 28.6449C50.1548 28.2783 50.2363 27.9524 50.44 27.9117C50.6437 27.8709 50.8881 28.1153 50.9696 28.482Z" fill="#2E338E"/>
<path d="M63.5589 37.7295L62.8664 40.7034C62.6627 41.6811 62.4183 42.6589 62.2146 43.6366C62.0109 44.6143 61.8072 45.5921 61.6035 46.6105C61.522 47.0994 61.4405 47.5882 61.3591 48.1179C61.2776 48.6067 61.2368 49.1363 61.1554 49.6252C61.1146 48.6067 61.1961 47.5882 61.2776 46.5698C61.3998 45.5513 61.5628 44.5736 61.7664 43.5551C61.9701 42.5774 62.2146 41.5997 62.4997 40.6219C62.8664 39.6035 63.1923 38.6665 63.5589 37.7295Z" fill="#2E338E"/>
<path d="M53.6585 23.9188C53.7399 24.367 53.577 24.7336 53.3733 24.7744C53.1696 24.8151 52.9252 24.4892 52.8437 24.0411C52.7622 23.5929 52.9252 23.2263 53.1289 23.1855C53.3733 23.1855 53.6177 23.5115 53.6585 23.9188Z" fill="#2E338E"/>
<path d="M57.7739 23.8788C57.8554 24.2862 57.7331 24.6529 57.5295 24.6936C57.285 24.7343 57.0406 24.4492 56.9591 24.0418C56.8776 23.6344 56.9999 23.2678 57.2035 23.227C57.448 23.1863 57.6924 23.4714 57.7739 23.8788Z" fill="#2E338E"/>
<path d="M45.2662 43.2295C45.2254 43.6776 45.1847 44.1257 45.1847 44.6146C45.1847 45.0627 45.2254 45.5109 45.3069 45.959C45.3884 46.4071 45.5514 46.8145 45.755 47.1811C45.9587 47.5478 46.2439 47.8737 46.5698 48.1996L46.6106 48.2403V48.2811C46.6513 48.5663 46.6513 48.8514 46.6513 49.1773C46.6513 49.4625 46.692 49.7477 46.692 50.0736C46.6106 49.7884 46.5698 49.5032 46.4883 49.2181C46.4069 48.9329 46.3661 48.6477 46.3254 48.3626L46.3661 48.444C45.9995 48.1589 45.6328 47.7922 45.3884 47.3848C45.144 46.9774 44.981 46.4886 44.8995 46.0405C44.8181 45.5516 44.8181 45.1035 44.8588 44.6146C44.981 44.1257 45.0625 43.6369 45.2662 43.2295Z" fill="#2E338E"/>
<path d="M57.3248 41.478C57.5285 41.8854 57.6914 42.2928 57.8137 42.7409C57.9359 43.1891 57.9766 43.6372 57.9766 44.0853C57.9766 44.5334 57.8951 45.0223 57.7729 45.4704C57.6507 45.9185 57.4063 46.3259 57.1211 46.6926L57.1618 46.6111C57.1618 46.937 57.1618 47.2222 57.1618 47.5481C57.1618 47.874 57.1618 48.1592 57.1211 48.4851C57.0396 48.1999 57.0396 47.874 56.9582 47.5888C56.9174 47.3037 56.8767 46.9777 56.8359 46.6926V46.6518L56.8767 46.6111C57.0804 46.2445 57.2841 45.8778 57.4063 45.4704C57.5285 45.063 57.61 44.6556 57.61 44.2075C57.61 43.2298 57.5285 42.3743 57.3248 41.478Z" fill="#2E338E"/>
<path d="M74.8418 18.583C75.0863 17.5238 74.7196 16.4239 73.7012 15.935C72.4383 15.3239 71.4605 16.2609 71.2976 16.3424C71.2568 16.2609 71.2976 15.4461 70.6865 14.8351C69.7088 13.8166 67.9163 14.0203 67.02 15.7313C66.5719 16.5868 66.5312 17.4016 66.7756 18.3386C67.1015 19.683 67.9163 21.3125 68.6496 22.4939C68.6903 22.5347 68.6903 22.5347 68.731 22.5347C69.4643 22.331 71.8272 21.8421 73.416 20.7422C74.19 20.1718 74.6382 19.4793 74.8418 18.583Z" fill="#EA687A"/>
<path d="M62.4976 9.4979C62.4569 9.13125 62.2124 8.76461 61.8458 8.72387C61.3569 8.64239 61.1125 9.09052 61.0718 9.13125C61.031 9.09052 60.9903 8.80535 60.7051 8.68313C60.257 8.4387 59.6866 8.68313 59.5644 9.37569C59.4829 9.70159 59.5644 9.98677 59.7681 10.2719C60.0126 10.6793 60.4607 11.1682 60.8273 11.4941H60.8681C61.1125 11.3719 61.8458 10.9238 62.2939 10.3942C62.4569 10.109 62.5384 9.82381 62.4976 9.4979Z" fill="#EA687A"/>
<path d="M31.6613 49.2587C31.3761 49.0142 30.9687 48.9327 30.6428 49.1364C30.2354 49.4216 30.3577 49.9105 30.3577 49.9512C30.3169 49.9512 30.0725 49.7883 29.7873 49.8697C29.2985 49.992 29.054 50.603 29.4207 51.1734C29.6244 51.4585 29.8688 51.6215 30.1947 51.703C30.6836 51.8252 31.3354 51.8659 31.8243 51.8659C31.8243 51.8659 31.865 51.8659 31.865 51.8252C31.9465 51.5808 32.1909 50.7252 32.1094 50.0327C32.028 49.7475 31.9057 49.4624 31.6613 49.2587Z" fill="#EA687A"/>
<path d="M32.5546 35.7746C31.9028 35.0005 30.9251 34.6339 29.9881 35.0413C28.8067 35.6116 28.9289 36.8745 28.8881 37.0375C28.8067 36.9967 28.2363 36.5078 27.4215 36.5893C26.1179 36.7115 25.2217 38.1374 25.9549 39.7669C26.3216 40.6225 26.8919 41.0706 27.7067 41.478C28.8474 42.0483 30.5584 42.3742 31.8213 42.5372C31.8621 42.5372 31.9028 42.5372 31.9028 42.4964C32.188 41.8446 33.2064 39.8077 33.3286 38.0559C33.3286 37.2004 33.0842 36.4264 32.5546 35.7746Z" fill="#EA687A"/>
<path d="M61.5209 53.1293C61.6431 52.9257 61.8061 52.7627 62.0098 52.722C62.132 52.6812 62.2542 52.6812 62.3764 52.722C62.4579 52.7627 62.4986 52.8034 62.4986 52.8849C62.3764 52.8849 62.2542 52.8849 62.132 52.9257C62.0098 52.9664 61.8876 53.0071 61.8061 53.1293C61.7246 53.2516 61.6839 53.4145 61.6839 53.5367V53.5775C61.6431 53.6182 61.6024 53.5775 61.6024 53.5367C61.3987 53.3738 61.3987 53.333 61.5209 53.1293Z" fill="white"/>
<path d="M50.7668 65.1469C50.6446 64.9432 50.4816 64.7803 50.2779 64.7395C50.1557 64.6988 50.0335 64.6988 49.9113 64.7395C49.8298 64.7803 49.7891 64.821 49.7891 64.9025C49.9113 64.9025 50.0335 64.8618 50.1557 64.9432C50.2779 64.984 50.4001 65.0247 50.4816 65.1469C50.5631 65.2691 50.6038 65.4321 50.6038 65.5543V65.595C50.6446 65.6358 50.6853 65.5951 50.6853 65.5543C50.889 65.3914 50.889 65.3506 50.7668 65.1469Z" fill="white"/>
<path d="M43.7601 73.3356C43.1083 73.3356 42.4565 73.2949 41.8454 73.2134C41.2751 73.1726 40.6233 73.0504 40.0937 72.806C39.4826 72.5208 39.0345 71.9912 38.9122 71.4209C38.8715 71.2579 38.8715 71.095 38.8715 70.8913C38.4641 70.6876 38.1382 70.2395 38.0567 69.7099C37.9753 69.1803 38.0567 68.6099 38.3826 67.8766C38.7493 67.0211 39.1974 66.41 39.8085 66.0841C40.827 65.5138 42.0084 65.7175 43.1491 65.9619C43.312 66.0026 43.5157 66.0434 43.6787 66.0434L43.9638 66.0841C44.5749 66.1656 45.186 66.2063 45.7971 66.1656C47.5488 66.0841 49.0969 65.3101 50.0746 64.699C50.1154 64.6583 50.1969 64.699 50.1969 64.7397C50.2376 64.7805 50.1969 64.862 50.1561 64.862C49.1376 65.473 47.5896 66.2471 45.7971 66.3693C45.186 66.41 44.5342 66.3693 43.9231 66.2878L43.6379 66.2471C43.475 66.2063 43.2713 66.1656 43.1083 66.1656C42.0084 65.9619 40.8677 65.7175 39.9307 66.2878C39.4011 66.6137 38.953 67.1433 38.5863 67.9988C38.3012 68.6914 38.2197 69.221 38.3012 69.7099C38.3826 70.1172 38.6271 70.4839 38.953 70.6876C38.953 70.6061 38.9937 70.5246 38.9937 70.4432C39.0752 69.9543 39.2382 69.4654 39.6048 69.0988C39.8492 68.8951 40.1751 68.8136 40.4603 68.8544C40.7047 68.8951 40.9084 69.0173 40.9899 69.1803C41.2343 69.6284 40.9899 70.158 40.6233 70.5246C40.2159 70.8913 39.7678 71.095 39.3196 71.0542C39.2382 71.0542 39.1567 71.0135 39.0752 71.0135C39.0752 71.1765 39.0752 71.2987 39.1159 71.4209C39.1974 71.9097 39.6048 72.3986 40.1751 72.643C40.7047 72.8875 41.3158 72.969 41.8862 73.0504C42.4972 73.0912 43.1491 73.1319 43.8009 73.1726C43.8416 73.1726 43.8824 73.2134 43.8824 73.2541C43.8416 73.2949 43.8009 73.3356 43.7601 73.3356ZM39.0752 70.7691C39.1567 70.8098 39.2382 70.8098 39.3196 70.8505C39.6863 70.8913 40.0937 70.7283 40.4603 70.4024C40.7455 70.1172 40.9899 69.6691 40.7862 69.3025C40.664 69.1395 40.501 69.058 40.3788 69.058C40.1344 69.0173 39.8492 69.0988 39.6863 69.2617C39.3604 69.5469 39.1974 70.0358 39.1159 70.4839C39.1159 70.5654 39.0752 70.6876 39.0752 70.7691Z" fill="#EA687A"/>
<path d="M64.2912 68.732C64.2505 68.732 64.2097 68.6913 64.2097 68.6913C64.169 68.6505 64.2097 68.5691 64.2505 68.5691C65.4319 68.0395 66.1652 67.5099 66.6948 66.8173C67.3874 65.8803 67.6318 64.373 66.7763 63.436C66.5319 63.1508 66.2059 62.9879 65.88 62.7842C65.5134 62.5805 65.1467 62.336 64.8616 62.0101C64.6171 61.6842 64.4542 61.1546 64.4134 60.5843C63.9653 60.6658 63.5579 60.7065 63.1913 60.625C63.1098 60.625 63.0283 60.5843 62.9468 60.5843C62.458 60.5028 62.0506 60.2584 61.6432 59.9325C61.358 59.688 61.1543 59.4436 60.9506 59.1177C60.584 58.5066 60.3803 57.8141 60.2988 56.9993V56.9585C60.2988 56.8363 60.2988 56.7548 60.2988 56.6326C60.2988 56.0215 60.3396 55.4512 60.5025 54.9623C60.7062 54.2291 60.9099 53.7402 61.4395 53.3328C61.4803 53.2921 61.5617 53.2921 61.5617 53.3328C61.6025 53.3735 61.6025 53.455 61.5617 53.455C61.0729 53.8217 60.8692 54.2698 60.6655 54.9623C60.5433 55.4512 60.4618 55.9808 60.4618 56.5919C60.4618 56.7141 60.4618 56.7956 60.4618 56.9178C60.4618 56.9178 60.4618 56.9178 60.4618 56.9585C60.5025 57.7326 60.7062 58.4251 61.0729 58.9955C61.2766 59.3214 61.4803 59.5658 61.7654 59.8102C62.1321 60.1362 62.5395 60.3398 62.9876 60.4213C63.0691 60.4213 63.1098 60.4621 63.1913 60.4621C63.5579 60.5028 63.9653 60.5028 64.3727 60.3806C64.3727 60.0954 64.4134 59.851 64.4949 59.6473C64.6986 58.9955 65.269 58.4251 65.9208 58.2214C66.2874 58.0992 66.7763 58.14 66.98 58.4659C67.1429 58.751 67.0615 59.1177 66.8985 59.3214C66.7355 59.5251 66.4911 59.688 66.2059 59.8102C65.7578 60.0139 65.1875 60.2991 64.6171 60.4621C64.6171 61.0324 64.7801 61.5213 65.0245 61.8064C65.2689 62.0916 65.5949 62.2953 65.9615 62.5397C66.2874 62.7434 66.6133 62.9471 66.8985 63.2323C67.7947 64.21 67.591 65.8396 66.817 66.858C66.3282 67.6321 65.5541 68.2024 64.2912 68.732C64.332 68.732 64.332 68.732 64.2912 68.732ZM66.3689 58.4251C66.2467 58.4251 66.1652 58.4251 66.043 58.4659C65.4319 58.6288 64.943 59.1584 64.7801 59.7288C64.7393 59.8917 64.6986 60.0954 64.6986 60.3398C65.269 60.1769 65.7985 59.9325 66.2059 59.7288C66.4504 59.6066 66.6948 59.4843 66.817 59.2806C66.9392 59.1177 67.0207 58.8325 66.8985 58.6288C66.7763 58.4659 66.5726 58.4251 66.3689 58.4251Z" fill="#EA687A"/>
<path d="M55.9397 71.3809C55.8984 71.3809 55.8984 71.3396 55.8984 71.3396L55.9397 71.2983C55.981 71.2983 55.981 71.3396 55.981 71.3396C55.981 71.3396 55.981 71.3809 55.9397 71.3809Z" fill="#EA687A"/>
<path d="M46.2854 73.2139C46.2441 73.2139 46.2441 73.1726 46.2441 73.1726L46.2854 73.1313C46.3267 73.1313 46.3267 73.1726 46.3267 73.1726L46.2854 73.2139Z" fill="#EA687A"/>
<defs>
<linearGradient id="paint0_linear_570_573" x1="55.8449" y1="1.80578" x2="55.8449" y2="136.279" gradientUnits="userSpaceOnUse">
<stop stop-color="white"/>
<stop offset="0.3771" stop-color="#D8F1FB"/>
<stop offset="0.7828" stop-color="#B5E5F8"/>
<stop offset="1" stop-color="#A7E0F7"/>
</linearGradient>
<linearGradient id="paint1_linear_570_573" x1="56.9175" y1="131.05" x2="56.9175" y2="100.675" gradientUnits="userSpaceOnUse">
<stop stop-color="white"/>
<stop offset="1" stop-color="#F6C749"/>
</linearGradient>
</defs>
</svg>
