<svg width="111" height="91" viewBox="0 0 111 91" fill="none" xmlns="http://www.w3.org/2000/svg">
<path d="M96.9826 84.0071C107.336 79.9447 114.311 73.1499 109.386 62.2209C105.215 52.9815 92.2012 52.0108 88.3904 42.1603C86.0536 36.0846 89.4329 29.6135 89.4329 23.4299C89.4329 13.867 79.2589 8.79792 71.4575 6.20946C57.7962 1.67965 42.8047 1.53585 29.8624 8.25866C7.465 19.9067 39.5691 37.8462 25.6561 49.4943C20.1197 54.1319 11.7432 54.4196 5.81126 58.6977C0.921946 62.2209 -1.77437 67.9371 1.31741 73.5814C7.28525 84.5104 22.6722 87.8538 34.0327 88.9324C54.6685 90.9097 77.3535 91.7725 96.9826 84.0071Z" fill="url(#paint0_linear_570_733)"/>
<path d="M48.8819 24.8678C48.9538 25.1554 49.0257 25.443 49.0617 25.7306C49.3493 27.0248 49.529 28.355 49.7447 29.6852C49.8166 30.0447 50.0324 30.6918 49.9605 31.0513L52.0456 22.8186C52.0456 22.8186 48.8819 21.2727 48.7741 21.8119C48.4865 22.8186 48.6303 23.8611 48.8819 24.8678Z" fill="#2E338E"/>
<path d="M65.5262 38.1694L66.425 48.8468L57.0059 48.4154L58.0844 38.9244L65.5262 38.1694Z" fill="#F2B4A7"/>
<path d="M57.5801 43.4544L58.0834 38.9605L65.5252 38.2056L65.8488 41.9085C64.3748 43.3465 61.7144 44.8565 57.5801 43.4544Z" fill="#E29488"/>
<path d="M51.7935 30.9795C52.3687 32.1659 52.0451 33.4602 51.1104 33.9275C50.1757 34.3949 48.9533 33.7837 48.3781 32.6333C47.8029 31.4469 48.1265 30.1527 49.0612 29.6853C49.9959 29.2179 51.2182 29.7932 51.7935 30.9795Z" fill="#E29488"/>
<path d="M51.7205 36.3721C51.0374 34.8622 50.642 33.2444 50.4263 31.8063C50.3903 31.4828 50.3184 31.1952 50.2465 30.9076C49.9589 29.6852 49.887 28.391 50.0668 27.0249C50.7139 22.6389 54.2371 19.1516 58.6231 18.5764C64.519 17.7496 69.7319 22.1356 70.0914 27.9237C70.7025 27.5282 71.3856 27.4203 72.0327 27.636C73.2551 28.1034 73.7943 29.7212 73.2191 31.2311C72.6439 32.777 71.2059 33.6398 69.9476 33.1725C69.7678 33.1006 69.624 33.0287 69.4802 32.9208C69.3005 37.882 65.4897 41.9445 60.6363 42.1602C58.2635 42.268 56.0705 41.4412 54.3449 40.0031C53.3023 39.2122 52.2598 37.6304 51.7205 36.3721Z" fill="#F2B4A7"/>
<path d="M53.5884 30.1883C53.6244 31.1231 54.0558 31.878 54.5591 31.878C55.0264 31.8421 55.386 31.0512 55.35 30.1164C55.3141 29.1817 54.8826 28.4268 54.3793 28.4268C53.912 28.4627 53.5525 29.2536 53.5884 30.1883Z" fill="#2E338E"/>
<path d="M60.8169 30.1883C60.8529 31.1231 61.2843 31.878 61.7876 31.878C62.255 31.8421 62.6145 31.0512 62.5785 30.1164C62.5426 29.1817 62.1112 28.4268 61.6079 28.4268C61.1405 28.4627 60.781 29.2536 60.8169 30.1883Z" fill="#2E338E"/>
<path d="M57.4353 44.6049C57.4353 44.6049 47.0455 45.7194 44.8166 47.5528C42.5517 49.3863 31.7305 76.2776 31.7305 76.2776L40.7541 86.8471L59.9159 86.9909C59.9159 86.9909 70.9169 88.393 81.9898 85.2293C93.1705 82.0657 87.67 54.5992 82.4571 49.0987C77.2442 43.5982 66.0276 43.7421 66.0276 43.7421C66.0276 43.7421 60.9585 49.6739 57.4353 44.6049Z" fill="white"/>
<path d="M71.7078 27.5642L71.7437 27.6361C71.7437 27.6361 70.9168 27.3485 70.0181 28.0675C69.1193 28.7865 69.2272 31.2671 69.2272 31.2671C68.616 31.6626 67.7891 31.6266 67.178 31.2312C65.7759 30.2245 65.4523 28.2472 65.3445 26.6294C65.2726 25.6947 65.3085 24.796 65.3445 23.8612C65.3804 23.4298 65.704 21.8839 65.0209 21.9558C64.4816 22.0277 63.9064 22.567 63.4031 22.8187C60.7787 24.1129 57.7229 24.2207 54.8828 24.4364C52.4022 24.6162 49.4542 24.9038 47.4409 23.1063C46.2186 22.0277 45.5715 20.2661 46.0029 18.7203C46.2546 17.8574 46.7579 17.1025 47.405 16.4913C49.6699 14.1905 52.8336 13.0041 55.9972 12.4648C57.615 12.1772 59.2688 12.0694 60.8866 12.1053C62.3246 12.1413 64.0862 12.0693 65.4164 12.5727C66.387 12.9322 67.106 13.8309 67.2858 14.8016C69.2271 14.6938 71.0247 16.0599 71.8516 17.8215C73.2536 20.6616 72.4987 24.5802 71.7078 27.5642Z" fill="#2E338E"/>
<path d="M88.211 3.80019C87.8515 1.82289 86.5213 0.241052 84.4361 0.0972488C81.8477 -0.0825054 80.841 2.2543 80.6613 2.47001C80.5534 2.3262 80.0142 0.960071 78.5402 0.312956C76.1674 -0.729619 73.2914 0.888169 72.9678 4.33945C72.7881 6.13699 73.3273 7.50313 74.3339 8.94116C75.8079 10.9904 78.3604 13.2193 80.3737 14.6933C80.4456 14.7652 80.5175 14.7652 80.5894 14.6933C81.6679 13.8664 85.3708 11.3139 87.2762 8.36594C88.211 6.96386 88.4986 5.45393 88.211 3.80019Z" fill="#EA687A"/>
<path d="M54.8125 84.1865C54.3811 84.2224 53.9497 84.2943 53.5183 84.3303C52.1521 84.51 50.75 84.6538 49.3839 84.7976C48.9525 84.8336 48.5211 84.9055 48.0897 84.9414C47.0471 85.0852 46.0405 85.229 45.0339 85.4447C44.3508 85.5885 43.6677 85.8042 42.9847 86.02C41.9061 86.4154 40.8276 86.9547 39.6772 87.0625C38.9582 87.1344 38.2032 87.0625 37.4842 86.8828C37.3404 86.8468 37.1966 86.8109 37.0887 86.703C36.909 86.5233 36.9449 86.1997 37.0528 85.948C37.4842 84.6179 38.2751 83.4315 39.3177 82.5327C40.0007 81.9575 40.7557 81.5261 41.5107 81.0947C41.978 80.843 42.4454 80.5554 42.9128 80.3397C43.2723 80.16 43.6677 79.9802 44.0272 79.8364C45.3215 79.369 46.7235 79.2252 48.0897 79.1174C48.593 79.0814 49.0963 79.0455 49.5996 79.0095H49.6356C50.7141 78.9376 51.8286 78.9017 52.9071 78.9017H52.979C53.5542 78.9017 54.1294 78.8657 54.7046 78.8657C54.5249 80.16 54.417 82.317 54.8125 84.1865Z" fill="#F2B4A7"/>
<path d="M4.98404 62.8315H35.1828C36.1175 62.8315 36.9443 63.4068 37.3039 64.2336L46.5432 86.8108H63.2244C63.6918 86.8108 64.0872 87.2062 64.0872 87.6736C64.0872 88.1409 63.6918 88.5364 63.2244 88.5364H15.0143C14.1156 88.5364 13.3246 87.9971 12.9651 87.2062L3.2584 65.5279C2.68318 64.2336 3.58196 62.8315 4.98404 62.8315Z" fill="#F6B858"/>
<path d="M23.574 78.714C24.7776 78.019 24.9807 76.1176 24.0277 74.4669C23.0746 72.8162 21.3263 72.0414 20.1227 72.7363C18.9191 73.4313 18.716 75.3328 19.669 76.9834C20.622 78.6341 22.3704 79.4089 23.574 78.714Z" fill="#F29D49"/>
<path d="M76.455 75.019C75.5563 75.0909 74.6216 75.1269 73.7228 75.2348C72.824 75.3067 71.8893 75.3785 70.9905 75.4864C69.157 75.6662 67.3595 75.8819 65.5619 76.1335C63.7644 76.3852 61.9669 76.6728 60.1693 77.0323C58.3718 77.3559 56.5742 77.7154 54.8486 78.1827L54.9564 78.0749C54.9205 78.4344 54.8486 78.8298 54.8126 79.1893C54.7767 79.5489 54.7407 79.9443 54.7048 80.3038C54.6688 81.0588 54.6688 81.8138 54.7048 82.5687C54.7407 83.3237 54.8486 84.0787 55.0283 84.7977C55.2081 85.5167 55.4957 86.2357 55.9631 86.8469C55.4597 86.2717 55.1362 85.5526 54.9205 84.8336C54.7048 84.1146 54.561 83.3596 54.525 82.5687C54.4531 81.8138 54.4531 81.0588 54.4531 80.2679C54.4531 79.5129 54.561 78.7579 54.6329 78.003V77.8951L54.7407 77.8592C56.5023 77.3918 58.2999 76.9963 60.0974 76.6368C61.8949 76.2773 63.6925 76.0257 65.526 75.774C67.3235 75.5224 69.157 75.3426 70.9905 75.2348C72.7881 75.0909 74.6215 75.055 76.455 75.019Z" fill="#2E338E"/>
<path d="M48.0179 58.9849C47.7662 60.7105 47.4427 62.4002 47.1551 64.0899C46.8315 65.7796 46.508 67.5052 46.1844 69.1949C45.8249 70.8846 45.5013 72.5743 45.1418 74.264L44.6026 76.8165C44.4228 77.6434 44.2071 78.5062 44.0273 79.333C44.1711 78.4702 44.3149 77.6074 44.4588 76.7805L44.9261 74.228C45.2497 72.5383 45.5732 70.8127 45.8968 69.123C46.2563 67.4333 46.5799 65.7436 46.9394 64.0539C47.227 62.3642 47.5865 60.6746 48.0179 58.9849Z" fill="#2E338E"/>
<path d="M72.6431 59.416L72.5712 61.3933C72.5353 62.0404 72.5353 62.6875 72.5353 63.3706C72.4993 64.6648 72.4993 65.995 72.5353 67.2892C72.5353 68.5835 72.6072 69.9137 72.715 71.2079C72.751 71.855 72.8589 72.5021 72.9667 73.1492L73.1824 74.1199L73.47 75.0546C73.3262 74.767 73.2184 74.4435 73.1105 74.1559L72.8229 73.2211C72.6791 72.574 72.5353 71.9269 72.4634 71.2798C72.2836 69.9856 72.2117 68.6554 72.1758 67.3611C72.1758 66.031 72.1758 64.7367 72.2477 63.4425C72.3196 62.0404 72.4274 60.7462 72.6431 59.416Z" fill="#2E338E"/>
<defs>
<linearGradient id="paint0_linear_570_733" x1="36.3559" y1="0.581098" x2="63.1407" y2="95.7376" gradientUnits="userSpaceOnUse">
<stop stop-color="white"/>
<stop offset="0.248" stop-color="#E1D2E7"/>
<stop offset="0.6" stop-color="#BA99C7"/>
<stop offset="0.861" stop-color="#A175B3"/>
<stop offset="1" stop-color="#9867AC"/>
</linearGradient>
</defs>
</svg>
