<svg width="112" height="112" viewBox="0 0 112 112" fill="none" xmlns="http://www.w3.org/2000/svg">
<path d="M93.9866 96.6325C102.981 94.365 114.092 88.8853 111.295 76.8677C110.312 72.6728 107.818 69.0449 104.984 65.946C100.94 61.5244 96.2919 57.7453 93.6843 52.19C91.0011 46.4835 92.8529 40.1346 95.8006 34.8816C98.1437 30.7624 100.789 26.1896 101.091 21.3524C101.923 7.55855 80.5707 3.89281 70.5183 4.15735C66.588 4.27072 62.6199 4.72421 58.7274 4.30851C52.1139 3.55269 45.9162 0.869509 39.3027 0.189267C32.9916 -0.453184 27.3229 0.416014 22.3345 4.72421C17.2704 9.0702 14.3983 15.6081 13.6425 22.2593C12.8867 28.8728 14.1338 35.5996 16.2501 41.9486C18.1396 47.5039 20.7094 53.5505 18.5931 59.0302C15.4565 67.0419 -5.44209 73.6554 2.68303 84.5015C7.93601 91.4929 17.2326 92.8533 24.9421 94.6673C47.579 99.8825 71.2363 102.415 93.9866 96.6325Z" fill="url(#paint0_linear_570_3499)"/>
<path d="M23.4296 100.563C16.7784 100.374 10.1649 101.81 3.51368 101.885C2.30436 101.885 0.943872 101.772 0.301421 100.752C-0.567777 99.4288 0.603751 97.7282 1.77528 96.7079C5.59219 93.4578 11.2231 91.6439 16.0604 90.4723C22.1447 89.0363 28.3425 88.0915 34.5781 87.5624C47.1247 86.4665 59.7848 86.9577 72.2937 87.9781C84.1224 88.9229 97.6894 90.2834 107.402 97.6905C108.271 98.3329 109.14 99.1265 109.367 100.147C109.707 101.696 108.422 103.208 106.91 103.737C105.399 104.266 103.736 104.039 102.149 103.813C93.5702 102.566 84.7648 101.281 76.224 102.83C69.9128 103.964 63.9796 106.609 57.8952 108.725C51.8486 110.842 45.3486 112.467 38.9996 111.484C36.7699 111.144 34.2757 110.199 33.4443 108.121C32.9908 106.987 33.1042 105.74 32.7263 104.606C31.7815 101.923 28.4937 100.941 25.6593 100.676C24.9413 100.6 24.1855 100.563 23.4296 100.563Z" fill="url(#paint1_linear_570_3499)"/>
<path d="M34.502 34.655C34.502 32.1985 36.4671 30.2334 38.9235 30.2334H76.4502C78.5287 30.2334 80.2293 31.8584 80.3427 33.9369L83.1015 88.3563C83.1771 89.9813 81.8922 91.3418 80.3049 91.3796L37.2985 92.1732C35.7869 92.211 34.5397 90.9639 34.5397 89.4522V34.655H34.502Z" fill="url(#paint2_linear_570_3499)"/>
<path d="M37.5625 32.9159C37.5625 32.1223 38.2427 31.5932 38.9986 31.631C44.4027 31.8956 61.6355 32.0845 76.3363 31.5177C77.0165 31.4799 77.5834 31.9712 77.6212 32.6514L80.5311 87.3353C80.5689 88.0911 80.002 88.7336 79.2462 88.7714C73.124 89.1493 47.8795 90.5476 38.8852 89.6028C38.3183 89.5272 37.9026 89.0737 37.9026 88.5446L37.5625 32.9159Z" fill="white"/>
<path d="M42.7383 36.5063L43.2674 47.768C43.2674 48.1459 43.5697 48.4483 43.9476 48.4483C46.0261 48.5239 52.564 48.675 56.2297 48.4861C56.6454 48.4483 56.9856 48.1459 56.9856 47.7302C57.0612 45.6139 57.2123 39.454 56.721 36.8842C56.6455 36.4685 56.2675 36.1661 55.8518 36.1661L43.4941 35.7504C43.0784 35.7126 42.7383 36.0528 42.7383 36.5063Z" fill="#2E338E"/>
<path d="M73.6518 37.4889C73.8785 37.4889 74.0675 37.3 74.0675 37.111C74.0675 36.8843 73.8785 36.7331 73.6518 36.7331L60.0847 36.5063C59.858 36.5063 59.7446 36.6953 59.8202 36.8843L59.8958 37.111C59.9714 37.3378 60.2359 37.4889 60.4626 37.4889H73.6518Z" fill="#2E338E"/>
<path d="M60.0496 38.5845C59.8228 38.5845 59.7095 38.7734 59.785 38.9624L59.8606 39.1891C59.9362 39.4159 60.2007 39.567 60.4275 39.567H73.6544C73.8812 39.567 74.0701 39.3781 74.0701 39.1891C74.0701 38.9624 73.8812 38.8112 73.6544 38.8112L60.0496 38.5845Z" fill="#2E338E"/>
<path d="M60.0496 40.7388C59.8228 40.7388 59.7095 40.9277 59.785 41.1167L59.8606 41.3434C59.9362 41.5702 60.2007 41.7213 60.4275 41.7213H73.6544C73.8812 41.7213 74.0701 41.5324 74.0701 41.3434C74.0701 41.1167 73.8812 40.9655 73.6544 40.9655L60.0496 40.7388Z" fill="#2E338E"/>
<path d="M74.9758 52.0379C75.2026 52.0379 75.3915 51.849 75.3537 51.66C75.3537 51.4333 75.127 51.2821 74.9002 51.2821L43.1556 51.0176C42.9288 51.0176 42.8533 51.1687 43.0044 51.3577L43.3068 51.6978C43.4579 51.8868 43.7603 52.0379 43.987 52.0379H74.9758Z" fill="#2E338E"/>
<path d="M43.1556 53.0967C42.9288 53.0967 42.8533 53.2478 43.0044 53.4368L43.3068 53.7769C43.4579 53.9659 43.7603 54.117 43.987 54.117H74.9758C75.2026 54.117 75.3915 53.9281 75.3537 53.7391C75.3537 53.5124 75.127 53.3612 74.9002 53.3612L43.1556 53.0967Z" fill="#2E338E"/>
<path d="M43.0416 56.6109C43.7974 56.5354 45.2335 56.5353 46.0271 56.4976C46.3672 56.4976 46.6696 56.7243 46.7452 57.0266C46.8963 57.6691 47.1231 58.765 47.0853 59.8988C47.0853 60.2389 46.783 60.5034 46.4428 60.5034L43.5329 60.4656C43.1928 60.4656 42.8905 60.2011 42.8527 59.8232L42.5881 57.1022C42.5503 56.9133 42.7771 56.6487 43.0416 56.6109Z" fill="#2E338E"/>
<path d="M48.3713 57.7446C48.1445 57.7446 47.9934 57.8958 48.0312 58.1603L48.1068 58.6516C48.1446 58.8784 48.3713 59.0673 48.598 59.0673H55.7028C55.9295 59.0673 56.1185 58.8784 56.1185 58.6516V58.5005C56.1185 58.2737 55.9295 58.0848 55.7028 58.047L48.3713 57.7446Z" fill="#2E338E"/>
<path d="M58.8385 56.6109C59.5943 56.5354 61.0304 56.5353 61.824 56.4976C62.1641 56.4976 62.4664 56.7243 62.542 57.0266C62.6932 57.6691 62.9199 58.765 62.8821 59.8988C62.8821 60.2389 62.5798 60.5034 62.2397 60.5034L59.3298 60.4656C58.9897 60.4656 58.6873 60.2011 58.6495 59.8232L58.385 57.1022C58.3472 56.9133 58.5739 56.6487 58.8385 56.6109Z" fill="#2E338E"/>
<path d="M64.2033 57.7446C63.9766 57.7446 63.8254 57.8958 63.8632 58.1603L63.9388 58.6516C63.9766 58.8784 64.2033 59.0673 64.4301 59.0673H71.5348C71.7616 59.0673 71.9505 58.8784 71.9505 58.6516V58.5005C71.9505 58.2737 71.7616 58.0848 71.5348 58.047L64.2033 57.7446Z" fill="#2E338E"/>
<path d="M42.134 65.9454C42.2474 66.2477 42.5875 66.4367 42.9654 66.4367L74.7478 66.2099C75.1257 66.2099 75.3903 65.9832 75.3903 65.6808C75.3903 65.4163 75.088 65.1896 74.7478 65.1896L42.9654 65.0762C42.4363 65.114 42.0206 65.5297 42.134 65.9454Z" fill="#2E338E"/>
<path d="M42.134 71.69C42.2474 71.9923 42.5875 72.1813 42.9654 72.1813L74.7478 71.9545C75.1257 71.9545 75.3903 71.7278 75.3903 71.4255C75.3903 71.1609 75.088 70.9342 74.7478 70.9342L42.9654 70.8208C42.4363 70.8586 42.0206 71.2743 42.134 71.69Z" fill="#2E338E"/>
<path d="M42.134 77.4341C42.2474 77.7365 42.5875 77.9254 42.9654 77.9254L74.7478 77.6987C75.1257 77.6987 75.3903 77.4719 75.3903 77.1696C75.3903 76.9051 75.088 76.6783 74.7478 76.6783L42.9654 76.5649C42.4363 76.6027 42.0206 77.0184 42.134 77.4341Z" fill="#2E338E"/>
<path d="M42.134 83.1783C42.2474 83.4806 42.5875 83.6696 42.9654 83.6696L74.7478 83.4428C75.1257 83.4428 75.3903 83.2161 75.3903 82.9137C75.3903 82.6492 75.088 82.4225 74.7478 82.4225L42.9654 82.3091C42.4363 82.3469 42.0206 82.7626 42.134 83.1783Z" fill="#2E338E"/>
<path d="M20.5938 88.1676V87.9409C20.5938 86.1269 21.7275 84.6152 23.1258 84.6152H48.8238C50.2221 84.6152 51.3558 86.0891 51.3558 87.9409V88.1676C51.3558 88.8478 50.9401 89.4147 50.411 89.4147H21.5763C21.0472 89.4147 20.5938 88.8478 20.5938 88.1676Z" fill="#F6B858"/>
<path d="M51.7338 92.4003H20.3293C19.9892 92.4003 19.7246 92.1357 19.7246 91.7956V88.5456C19.7246 88.2055 19.9892 87.9409 20.3293 87.9409H51.7716C52.1117 87.9409 52.3762 88.2055 52.3762 88.5456V91.7956C52.3384 92.1357 52.0739 92.4003 51.7338 92.4003Z" fill="#F29D49"/>
<path d="M82.3451 89.0745C82.0806 90.1326 81.5515 91.0774 80.7957 91.9088C80.38 92.3623 79.7376 92.5135 79.1329 92.3623C73.1997 90.8506 60.9931 82.461 49.1267 75.0161C48.333 74.5248 47.804 73.9958 48.2197 73.2021L49.1645 71.5015C49.5802 70.7457 50.4494 71.237 51.3186 71.6149C63.9786 77.5859 77.4323 82.9145 81.9294 87.4116C82.3074 87.9029 82.4585 88.5076 82.3451 89.0745Z" fill="#F6B858"/>
<path d="M51.1667 69.876L47.9922 75.6203C47.9544 75.6959 47.841 75.7337 47.7654 75.6959L46.2916 74.9022C46.216 74.8644 46.1782 74.7511 46.216 74.6755L49.3905 68.9312C49.4282 68.8556 49.5416 68.8179 49.6172 68.8556L51.0911 69.6493C51.1666 69.6871 51.2044 69.7626 51.1667 69.876Z" fill="#F29D49"/>
<path d="M40.4412 57.389L30.4551 75.5327L42.7385 82.2934L52.7246 64.1497L40.4412 57.389Z" fill="#F6B858"/>
<path d="M30.982 74.5993L29.7246 76.8838L42.008 83.6445L43.2654 81.36L30.982 74.5993Z" fill="#F29D49"/>
<path d="M42.588 82.6123L41.9455 83.746C41.7566 84.0861 41.3409 84.2373 40.9629 84.1239C37.1082 82.7634 33.4047 80.7605 29.8523 78.0018C29.55 77.775 29.4366 77.3215 29.6256 76.9814L30.268 75.8477L42.588 82.6123Z" fill="#F6B858"/>
<path d="M43.8351 81.0626L43.495 81.7051C43.4572 81.7807 43.3438 81.8185 43.2682 81.7807L30.3814 74.6759C30.3058 74.6381 30.268 74.5248 30.3058 74.4492L30.646 73.8067C30.6838 73.7311 30.7971 73.6933 30.8727 73.7311L43.7595 80.8359C43.8729 80.9115 43.8729 80.9871 43.8351 81.0626Z" fill="#F29D49"/>
<path d="M52.7875 64.0545L54.0449 61.77L41.7615 55.0093L40.5041 57.2938L52.7875 64.0545Z" fill="#F29D49"/>
<path d="M53.4723 62.7713L54.1147 61.6376C54.3037 61.2975 54.2281 60.844 53.888 60.6172C50.6757 58.0852 46.9722 56.0067 42.7774 54.4951C42.3994 54.3439 41.9837 54.5329 41.7948 54.873L41.1523 56.0067L53.4723 62.7713Z" fill="#F6B858"/>
<path d="M52.868 64.6992L53.2081 64.0568C53.2459 63.9812 53.2081 63.8678 53.1326 63.83L40.2458 56.7253C40.1702 56.6875 40.0568 56.7253 40.019 56.8009L39.6789 57.4433C39.6411 57.5189 39.6789 57.6323 39.7545 57.6701L52.6413 64.7748C52.7169 64.7748 52.8302 64.7748 52.868 64.6992Z" fill="#F29D49"/>
<path d="M60.162 23.6197C59.1038 22.8639 57.2143 22.7883 56.0428 23.7331C55.2491 24.3755 55.098 25.4337 55.1736 26.4162C55.2114 26.9075 55.3247 27.3988 55.4003 27.8523C55.4381 27.9657 55.5515 29.0994 55.7026 29.0994L60.1998 29.5151C60.1998 29.5151 62.9586 25.547 60.162 23.6197ZM58.1591 27.2099C57.5544 27.2099 57.0253 26.7186 57.0253 26.0761C57.0253 25.4337 57.5166 24.9424 58.1591 24.9424C58.7637 24.9424 59.2928 25.4337 59.2928 26.0761C59.2928 26.7186 58.7637 27.2099 58.1591 27.2099Z" fill="#EA687A"/>
<path d="M49.6191 33.0674V29.704C49.6191 28.9859 50.2238 28.4191 50.904 28.4569H65.1135C65.756 28.4947 66.2473 28.9859 66.2851 29.5906L66.4362 32.8784L49.6191 33.0674Z" fill="#EA687A"/>
<defs>
<linearGradient id="paint0_linear_570_3499" x1="56.2703" y1="5.03444" x2="56.2703" y2="109.678" gradientUnits="userSpaceOnUse">
<stop stop-color="white"/>
<stop offset="0.248" stop-color="#E1D2E7"/>
<stop offset="0.6" stop-color="#BA99C7"/>
<stop offset="0.861" stop-color="#A175B3"/>
<stop offset="1" stop-color="#9867AC"/>
</linearGradient>
<linearGradient id="paint1_linear_570_3499" x1="54.4991" y1="108.828" x2="55.1395" y2="81.7832" gradientUnits="userSpaceOnUse">
<stop stop-color="white"/>
<stop offset="1" stop-color="#F6C749"/>
</linearGradient>
<linearGradient id="paint2_linear_570_3499" x1="58.7934" y1="88.5089" x2="55.3408" y2="-13.6893" gradientUnits="userSpaceOnUse">
<stop stop-color="#09005D"/>
<stop offset="1" stop-color="#1A0F91"/>
</linearGradient>
</defs>
</svg>
