<svg width="120" height="121" viewBox="0 0 120 121" fill="none" xmlns="http://www.w3.org/2000/svg">
<path d="M100.938 103.782C110.598 101.346 122.53 95.4612 119.527 82.5545C118.472 78.0494 115.793 74.153 112.749 70.8249C108.406 66.0762 103.414 62.0175 100.613 56.0511C97.7315 49.9225 99.7203 43.1039 102.886 37.4622C105.402 33.0382 108.244 28.1272 108.568 22.9321C109.461 8.11776 86.5295 4.18081 75.7333 4.46492C71.5122 4.58668 67.2506 5.07372 63.0701 4.62727C55.9674 3.81552 49.3111 0.933837 42.2083 0.203269C35.4303 -0.486712 29.3422 0.446792 23.9847 5.07372C18.5461 9.74124 15.4614 16.7628 14.6497 23.9061C13.838 31.0089 15.1773 38.2334 17.4502 45.052C19.4796 51.0183 22.2395 57.5123 19.9666 63.3974C16.5979 72.0019 -5.8468 79.1046 2.87943 90.7531C8.52104 98.2617 18.5055 99.7229 26.7852 101.671C51.0969 107.272 76.5045 109.991 100.938 103.782Z" fill="url(#paint0_linear_570_3390)"/>
<path d="M25.163 108.002C18.0197 107.8 10.917 109.342 3.77363 109.423C2.47484 109.423 1.0137 109.301 0.323721 108.205C-0.609783 106.785 0.648419 104.958 1.90662 103.863C6.00592 100.372 12.0534 98.4239 17.2485 97.1657C23.7831 95.6234 30.4394 94.6087 37.1362 94.0405C50.6112 92.8634 64.2078 93.3911 77.6422 94.4869C90.3459 95.5016 104.917 96.9628 115.348 104.918C116.281 105.608 117.215 106.46 117.458 107.556C117.823 109.22 116.443 110.844 114.82 111.412C113.196 111.98 111.411 111.736 109.706 111.493C100.493 110.154 91.0359 108.774 81.8632 110.438C75.0852 111.655 68.713 114.496 62.1785 116.769C55.6845 119.042 48.7036 120.787 41.8849 119.732C39.4903 119.367 36.8115 118.352 35.9186 116.12C35.4316 114.902 35.5533 113.563 35.1475 112.345C34.1328 109.464 30.6017 108.408 27.5577 108.124C26.7865 108.043 25.9748 108.002 25.163 108.002Z" fill="url(#paint1_linear_570_3390)"/>
<path d="M100.089 98.3428C100.089 98.3428 100.332 100.291 99.9671 100.291C99.9266 100.291 97.6941 100.291 97.6941 100.291H95.3398L98.3029 98.0993C98.7494 97.1657 100.089 98.3428 100.089 98.3428Z" fill="#091472"/>
<path d="M71.8784 28.7766H19.8457V99.9258H71.8784V28.7766Z" fill="#091472"/>
<path d="M69.6052 30.7246H22.0371V97.9775H69.6052V30.7246Z" fill="white"/>
<path d="M35.959 28.7766V31.2118C35.959 32.5512 37.0548 33.6471 38.3942 33.6471H51.3821C52.7215 33.6471 53.8173 32.5512 53.8173 31.2118V28.7766H35.959Z" fill="#F29D49"/>
<path d="M32.4275 88.3174H25.3242V89.048H32.4275V88.3174Z" fill="#4C4384"/>
<path d="M41.1541 88.3174H34.0508V89.048H41.1541V88.3174Z" fill="#4C4384"/>
<path d="M35.1471 89.9004H25.3242V90.631H35.1471V89.9004Z" fill="#4C4384"/>
<path d="M64.8571 50.2072H56.252V41.6021H64.8571V50.2072ZM56.6579 49.8013H64.4512V42.008H56.6579V49.8013Z" fill="#4C4384"/>
<path d="M60.7984 48.5028C60.636 48.5028 60.4331 48.4216 60.3113 48.2998L57.6729 45.0932C57.47 44.8496 57.5106 44.4437 57.7541 44.2408C57.9976 44.0378 58.4035 44.0784 58.6065 44.322L60.7172 46.8792L64.5327 40.4659C64.6951 40.1817 65.0604 40.1006 65.3851 40.2629C65.6692 40.4253 65.7504 40.7906 65.588 41.1153L61.2855 48.2186C61.2043 48.381 61.0013 48.5028 60.7984 48.5028Z" fill="#FF912B"/>
<path d="M49.6341 42.9009H30.5176V43.7532H49.6341V42.9009Z" fill="#4C4384"/>
<path d="M48.1324 46.6353H30.5176V47.4876H48.1324V46.6353Z" fill="#4C4384"/>
<path d="M49.592 44.7676H44.3965V45.62H49.592V44.7676Z" fill="#4C4384"/>
<path d="M42.9778 44.7676H30.5176V45.6199H42.9778V44.7676Z" fill="#4C4384"/>
<path d="M26.2159 43.6317L25.3635 43.8752L25.2012 43.1852L26.4595 42.7793H27.0277V47.569H26.2159V43.6317Z" fill="#4C4384"/>
<path d="M27.5957 47.2841C27.5957 47.1218 27.7175 47 27.8798 47C28.0422 47 28.164 47.1218 28.164 47.2841C28.164 47.4465 28.0422 47.5683 27.8798 47.5683C27.7175 47.5683 27.5957 47.4465 27.5957 47.2841Z" fill="#4C4384"/>
<path d="M64.9391 63.0734H56.334V54.4683H64.9391V63.0734ZM56.7399 62.6675H64.5332V54.8742H56.7399V62.6675Z" fill="#4C4384"/>
<path d="M60.8394 61.369C60.677 61.369 60.4741 61.2878 60.3523 61.166L57.7139 57.9594C57.511 57.7158 57.5516 57.3099 57.7951 57.107C58.0387 56.904 58.4446 56.9446 58.6475 57.1882L60.7582 59.7454L64.5737 53.3321C64.7361 53.048 65.1014 52.9668 65.4261 53.1291C65.7102 53.2915 65.7914 53.6568 65.6291 53.9815L61.3671 61.1254C61.2859 61.2878 61.0829 61.4096 60.88 61.4096C60.88 61.369 60.88 61.369 60.8394 61.369Z" fill="#FF912B"/>
<path d="M25.1621 59.7852L26.7857 58.4051C27.4352 57.8774 27.6787 57.5527 27.6787 57.1468C27.6787 56.7003 27.354 56.4162 26.9075 56.4162C26.461 56.4162 26.1769 56.6597 25.8116 57.1062L25.2433 56.6597C25.6898 56.0103 26.1363 55.6855 26.9887 55.6855C27.9223 55.6855 28.5311 56.2538 28.5311 57.1062C28.5311 57.8368 28.1252 58.2427 27.3134 58.9328L26.3392 59.7446H28.5717V60.4752H25.1621V59.7852Z" fill="#4C4384"/>
<path d="M29.1387 60.1503C29.1387 59.988 29.2604 59.8662 29.4228 59.8662C29.5852 59.8662 29.7069 59.988 29.7069 60.1503C29.7069 60.3127 29.5852 60.4345 29.4228 60.4345C29.2604 60.4345 29.1387 60.3127 29.1387 60.1503Z" fill="#4C4384"/>
<path d="M50.7742 55.7271H30.6836V56.5794H50.7742V55.7271Z" fill="#4C4384"/>
<path d="M49.1913 59.5015H30.6836V60.3538H49.1913V59.5015Z" fill="#4C4384"/>
<path d="M50.7746 57.6348H45.2949V58.4872H50.7746V57.6348Z" fill="#4C4384"/>
<path d="M43.7932 57.6348H30.6836V58.4871H43.7932V57.6348Z" fill="#4C4384"/>
<path d="M64.9372 76.0207H56.332V67.4155H64.9372V76.0207ZM56.7379 75.6148H64.5313V67.8214H56.7379V75.6148Z" fill="#4C4384"/>
<path d="M60.8394 74.3158C60.677 74.3158 60.4741 74.2346 60.3523 74.1128L57.7139 70.9062C57.511 70.6626 57.5516 70.2567 57.7951 70.0538C58.0387 69.8508 58.4446 69.8914 58.6475 70.135L60.7582 72.6921L64.5737 66.2789C64.7361 65.9947 65.1014 65.9136 65.4261 66.0759C65.7102 66.2383 65.7914 66.6036 65.6291 66.9283L61.3671 74.0722C61.2859 74.2346 61.0829 74.3563 60.88 74.3563C60.88 74.3158 60.88 74.3158 60.8394 74.3158Z" fill="#FF912B"/>
<path d="M50.7762 68.7139H30.6855V69.5662H50.7762V68.7139Z" fill="#4C4384"/>
<path d="M49.1933 72.4482H30.6855V73.3006H49.1933V72.4482Z" fill="#4C4384"/>
<path d="M50.7766 70.5811H45.2969V71.4335H50.7766V70.5811Z" fill="#4C4384"/>
<path d="M43.7952 70.5811H30.6855V71.4334H43.7952V70.5811Z" fill="#4C4384"/>
<path d="M25.0801 72.5295L25.6483 72.0019C25.9731 72.4078 26.3384 72.6107 26.8661 72.6107C27.3125 72.6107 27.6779 72.3266 27.6779 71.8801C27.6779 71.4336 27.272 71.1495 26.6225 71.1495H26.2572L26.1354 70.6218L27.3937 69.2823H25.4048V68.5923H28.4491V69.2011L27.1502 70.5406C27.8808 70.6624 28.4897 71.0277 28.4897 71.8395C28.4897 72.6919 27.8402 73.3008 26.8661 73.3008C26.0542 73.3413 25.486 73.0166 25.0801 72.5295Z" fill="#4C4384"/>
<path d="M28.6934 73.0571C28.6934 72.8947 28.8151 72.7729 28.9775 72.7729C29.1399 72.7729 29.2616 72.8947 29.2616 73.0571C29.2616 73.2194 29.1399 73.3412 28.9775 73.3412C28.8557 73.3412 28.6934 73.2194 28.6934 73.0571Z" fill="#4C4384"/>
<path d="M51.5429 90.5911C49.4728 90.5911 47.6462 89.1298 47.2403 87.0597C47.1997 86.8974 47.3215 86.735 47.4838 86.6944C47.6462 86.6538 47.8086 86.7756 47.8491 86.9379C48.2145 88.6833 49.7569 89.9822 51.5835 89.9822C53.3694 89.9822 54.9119 88.7239 55.2772 86.9785C55.3178 86.8162 55.4801 86.6944 55.6425 86.735C55.8049 86.7756 55.9266 86.9379 55.886 87.1003C55.399 89.1298 53.5724 90.5911 51.5429 90.5911Z" fill="#4C4384"/>
<path d="M47.5244 85.7205H47.4838C47.3215 85.6799 47.1997 85.5175 47.2403 85.3552C47.6462 83.285 49.4728 81.7832 51.5429 81.7832C53.5724 81.7832 55.3178 83.1633 55.8049 85.1116C55.8454 85.274 55.7643 85.4363 55.6019 85.4769C55.4395 85.5175 55.2772 85.4363 55.2366 85.274C54.8307 83.5692 53.2883 82.3921 51.5429 82.3921C49.7163 82.3921 48.1739 83.6909 47.8086 85.4769C47.768 85.6393 47.6462 85.7205 47.5244 85.7205Z" fill="#4C4384"/>
<path d="M51.5434 92.4579C48.0935 92.4579 45.293 89.6573 45.293 86.2074C45.293 82.7575 48.0935 79.957 51.5434 79.957C54.9933 79.957 57.7938 82.7575 57.7938 86.2074C57.7938 89.6573 54.9933 92.4579 51.5434 92.4579ZM51.5434 80.8094C48.5805 80.8094 46.1453 83.2446 46.1453 86.2074C46.1453 89.1703 48.5805 91.6055 51.5434 91.6055C54.5062 91.6055 56.9415 89.1703 56.9415 86.2074C56.9415 83.2446 54.5062 80.8094 51.5434 80.8094Z" fill="#4C4384"/>
<path d="M52.7612 85.4365H50.2852V85.8424H52.7612V85.4365Z" fill="#4C4384"/>
<path d="M52.7612 87.0596H50.2852V87.4655H52.7612V87.0596Z" fill="#4C4384"/>
<path d="M53.3699 86.2075H49.7168V86.6134H53.3699V86.2075Z" fill="#4C4384"/>
<path d="M92.7009 61.8955C92.7009 61.8955 90.8743 66.9287 89.3319 67.4564C88.1141 67.8623 84.0957 69.9324 84.0957 69.9324L84.2581 70.9878C84.2581 70.9878 88.9666 70.5007 90.509 69.6077C92.9444 68.2276 94.1215 66.0763 94.1215 66.0763L92.7009 61.8955Z" fill="white"/>
<path d="M100.168 98.5048C100.168 98.5048 99.437 98.7483 98.9093 98.7483C98.3005 98.7483 97.7323 98.586 97.7323 98.586C97.7323 98.586 97.6105 97.2872 96.8394 94.4055C96.4335 92.9038 95.9059 90.9556 95.0942 88.561C92.9024 81.9047 92.253 78.0489 92.1719 77.6836V77.643L98.8687 74.6802C98.8687 74.6802 98.057 83.8123 99.1123 87.3433C99.2746 87.8304 99.3964 88.3986 99.4776 89.0074C100.168 92.8226 100.168 98.5048 100.168 98.5048Z" fill="#4C4384"/>
<path d="M94.9717 98.3428C94.9717 98.3428 95.2153 100.291 94.85 100.291C94.8094 100.291 92.5769 100.291 92.5769 100.291H90.2227L93.1857 98.0993C93.6322 97.1657 94.9717 98.3428 94.9717 98.3428Z" fill="#091472"/>
<path d="M90.9957 74.8838C90.9957 74.8838 90.9145 80.8095 91.9292 88.0746C92.9439 95.3397 92.6192 98.4649 92.6192 98.4649C92.6192 98.4649 93.3091 98.7084 93.5933 98.7084C94.3238 98.749 95.0544 98.5461 95.0544 98.5461C95.0544 98.5461 96.5155 91.281 96.1097 87.6281C95.7038 83.9753 98.139 75.1273 98.139 75.1273L90.9957 74.8838Z" fill="#4C4384"/>
<path d="M96.8399 80.606L96.5152 83.1226C96.3934 83.975 96.2716 84.7868 96.2311 85.6392C96.1093 86.451 96.2311 87.3034 96.2311 88.1558C96.2311 89.0082 96.2311 89.8606 96.1499 90.6724C96.1499 89.82 96.1093 89.0082 96.0687 88.1558L95.9875 86.8975C95.9469 86.4916 95.9875 86.0451 96.0281 85.6392C96.1093 84.7868 96.2311 83.975 96.3528 83.1226C96.4746 82.2702 96.637 81.4178 96.8399 80.606Z" fill="#091472"/>
<path d="M95.7445 61.0026L94.4456 61.855L93.2685 61.5303C93.0656 61.2055 92.9844 60.6373 92.9844 60.1096C92.9844 60.0284 92.9844 59.9878 92.9844 59.9472C92.9844 59.5007 93.025 59.176 93.025 59.176L94.8109 58.4048L94.9733 58.3236L95.501 58.0801C95.501 58.0801 95.501 58.1613 95.501 58.283C95.501 58.4454 95.4604 58.6483 95.4604 58.6889C95.4604 58.8107 95.4604 58.8919 95.4604 59.0137C95.3386 60.2314 95.7445 61.0026 95.7445 61.0026Z" fill="#F2B4A7"/>
<path d="M95.4198 58.2833C95.4198 58.4457 95.3792 58.6486 95.3792 58.6892C95.3792 58.811 95.3792 58.8922 95.3792 59.014C94.7704 59.4605 93.715 59.7446 92.9844 59.9069C92.9844 59.4604 93.025 59.1357 93.025 59.1357L94.8109 58.3645L94.9733 58.2833L95.2168 58.2021C95.2574 58.2427 95.3386 58.2833 95.4198 58.2833Z" fill="#E29488"/>
<path d="M92.3345 59.0549C92.3345 59.0549 95.1758 59.9479 95.7035 58.1619C96.2312 56.3759 96.9618 55.28 95.1352 54.6711C93.3492 54.0217 92.781 54.59 92.4563 55.1582C92.1721 55.6859 91.6039 58.7708 92.3345 59.0549Z" fill="#F2B4A7"/>
<path d="M92.6188 54.9552C92.6188 54.9552 92.7812 57.0253 93.2277 56.9442C93.6742 56.863 94.1207 56.66 94.0801 57.2689C93.9989 57.8777 94.486 58.9737 95.0948 58.9737C96.4343 58.9737 97.855 55.5641 97.4897 54.9146C96.4343 53.0881 91.117 52.6822 92.6188 54.9552Z" fill="#2E338E"/>
<path d="M99.1533 76.1009C98.788 77.8461 92.6188 78.0896 90.9953 76.5067C90.9547 76.4662 90.9547 75.8574 90.9953 74.8833C91.0359 73.8686 91.0765 72.448 91.1576 70.9869C91.2794 67.8617 91.4823 64.5335 91.5229 64.2494C91.6853 63.5189 91.807 62.7883 92.0506 62.0577C92.2535 61.4895 92.497 60.8401 93.0652 60.5966C93.1058 60.5966 95.1758 59.6631 95.4193 59.7443C95.6628 59.8254 95.8657 60.1907 96.0687 60.3937C96.3122 60.6372 96.5557 60.9213 96.7587 61.2054C97.4892 62.2201 97.8545 63.4377 98.1386 64.6147C98.5851 66.4817 98.8286 68.3487 99.0315 70.2563C99.1939 71.8392 99.2751 73.4221 99.2751 75.005C99.2345 75.3703 99.2345 75.7356 99.1533 76.1009Z" fill="white"/>
<path d="M68.9588 59.4202C68.8776 59.5826 68.7964 59.7044 68.6747 59.8261C68.1876 60.3944 67.5787 60.7597 66.9699 60.8003H66.9293C66.4828 60.8409 66.0363 60.7191 65.671 60.435C65.1027 59.9885 64.4533 58.0401 64.0474 56.8224C64.0474 56.7818 64.0068 56.7413 64.0068 56.7413C63.8444 56.173 63.7227 55.7671 63.7227 55.7671C63.7227 55.7671 64.1286 55.8077 64.7374 55.8483C64.778 55.8483 64.778 55.8483 64.8186 55.8483C66.1175 55.97 68.147 56.2542 68.6747 56.7007C68.837 56.8224 68.9588 56.9848 69.04 57.1472C69.2023 57.4313 69.2835 57.7966 69.2835 58.1619C69.3241 58.6084 69.2024 59.0143 68.9588 59.4202Z" fill="#EA687A"/>
<path d="M64.7374 55.8483C64.6968 56.1324 64.2909 56.5789 64.0068 56.7413C63.8444 56.173 63.7227 55.7671 63.7227 55.7671C63.7227 55.7671 64.1692 55.8077 64.7374 55.8483Z" fill="#2E338E"/>
<path d="M95.1777 84.4625L92.2958 82.1082L89.2109 79.5916L92.2958 75.9385L95.2995 78.3739L98.222 80.7281C98.7903 81.2964 95.7054 84.8684 95.1777 84.4625Z" fill="#EA687A"/>
<path d="M98.3444 80.3226L89.4145 73.0569C89.2521 72.9352 89.2521 72.6916 89.3739 72.5292C89.4957 72.3669 89.7392 72.3669 89.9016 72.4887L98.8315 79.7543C98.9938 79.8761 98.9938 80.1196 98.8721 80.282C98.7097 80.4038 98.5067 80.4444 98.3444 80.3226Z" fill="#EA687A"/>
<path d="M97.8609 79.9156L96.8848 79.1216L96.603 79.468L97.5792 80.262L97.8609 79.9156Z" fill="#EA687A"/>
<path d="M92.2951 82.1081L65.7511 60.5158L65.6699 60.4346C66.2787 60.881 69.2822 57.4311 68.714 56.7817L68.7951 56.8629L95.3391 78.4553C96.0291 78.9829 92.9039 82.5951 92.2951 82.1081Z" fill="#2E338E"/>
<path d="M84.5844 72.8133C84.1379 72.6916 83.8132 72.3668 83.7726 72.2856C83.7726 72.2856 83.5696 72.2856 83.8132 72.6915C83.8132 72.7321 83.8537 72.8133 83.8943 72.8945C83.8943 72.9351 83.8943 72.9351 83.8537 72.9351C83.6102 72.9351 83.3261 72.8539 82.839 72.9757C82.7578 72.9757 82.7578 73.138 82.7578 73.2192C82.7578 73.341 82.7578 73.4628 82.8796 73.6657C82.9608 73.7875 83.2043 73.8687 83.6914 74.0716C83.8943 74.1528 84.422 74.0716 84.9497 73.9093L85.3556 73.7063L85.2338 72.9351L85.112 72.9757C84.9903 73.0569 84.7873 72.8539 84.5844 72.8133Z" fill="#FFAE73"/>
<path d="M94.8518 61.3677C94.8518 61.3677 100.615 62.4635 93.1471 70.8245C91.9701 72.1639 85.4762 73.9091 85.4762 73.9091C85.4762 73.9091 84.8268 73.3409 85.1515 72.8944C85.1515 72.8944 89.616 69.6475 90.5901 69.1604C91.0366 68.9169 92.2948 64.0058 93.0254 62.8288C93.7559 61.6518 94.8518 61.3677 94.8518 61.3677Z" fill="white"/>
<path d="M91.4006 65.1016C91.4412 65.4669 91.4412 65.8322 91.4412 66.1975C91.4006 66.5628 91.3601 66.9281 91.2789 67.2934C91.2383 66.9281 91.2383 66.5628 91.2383 66.1975C91.2383 65.8322 91.2789 65.4669 91.4006 65.1016Z" fill="#2E338E"/>
<path d="M93.1863 62.5854C92.9022 63.1943 92.6587 63.8438 92.4151 64.4932C92.1716 65.1426 92.0092 65.7921 91.8063 66.4821C91.6033 67.1316 91.3598 67.781 91.0756 68.4305C90.9945 68.5928 90.9539 68.7552 90.8321 68.9176C90.7915 68.9987 90.7509 69.0799 90.6697 69.1611C90.5886 69.2423 90.5074 69.2829 90.4262 69.3235C90.1421 69.4858 89.8173 69.6888 89.5332 69.8511C89.8173 69.6482 90.1015 69.4452 90.3856 69.2423C90.4668 69.2017 90.548 69.1611 90.5886 69.0799C90.6291 68.9987 90.6697 68.9581 90.7103 68.877C90.7915 68.7146 90.8321 68.5522 90.9133 68.3899C91.1568 67.7404 91.3598 67.091 91.5627 66.4415C91.7657 65.7921 91.9686 65.1021 92.2528 64.4526C92.5369 63.8032 92.821 63.1537 93.1863 62.5854Z" fill="#2E338E"/>
<path d="M96.8395 63.0322C97.0019 63.3569 97.0425 63.7628 97.0425 64.1688C97.0425 64.5747 96.9613 64.94 96.8395 65.3053C96.6365 66.0359 96.2712 66.7259 95.8653 67.416C95.4594 68.0654 95.0535 68.7149 94.5664 69.3237C94.12 69.9326 93.5923 70.5009 93.024 71.0285C92.5369 71.4344 91.9687 71.678 91.4004 71.9215C91.9687 71.678 92.4963 71.3127 92.9428 70.9474C93.9982 69.8514 94.8912 68.5931 95.6624 67.3348C96.0683 66.6854 96.393 65.9953 96.6365 65.3053C96.7583 64.94 96.8395 64.5747 96.8801 64.2093C97.0019 63.7629 96.9613 63.3975 96.8395 63.0322Z" fill="#2E338E"/>
<defs>
<linearGradient id="paint0_linear_570_3390" x1="60.4312" y1="5.4069" x2="60.4312" y2="117.792" gradientUnits="userSpaceOnUse">
<stop stop-color="white"/>
<stop offset="0.3771" stop-color="#D8F1FB"/>
<stop offset="0.7828" stop-color="#B5E5F8"/>
<stop offset="1" stop-color="#A7E0F7"/>
</linearGradient>
<linearGradient id="paint1_linear_570_3390" x1="58.5311" y1="116.88" x2="59.2189" y2="87.8338" gradientUnits="userSpaceOnUse">
<stop stop-color="white"/>
<stop offset="1" stop-color="#F6C749"/>
</linearGradient>
</defs>
</svg>
