<svg width="131" height="104" viewBox="0 0 131 104" fill="none" xmlns="http://www.w3.org/2000/svg">
<path d="M114.457 95.622C126.676 90.8276 134.908 82.8086 129.095 69.9103C124.173 59.0062 108.814 57.8606 104.317 46.2352C101.559 39.0648 105.547 31.4277 105.547 24.13C105.547 12.844 93.5397 6.86161 84.3327 3.80675C68.2099 -1.53923 50.5172 -1.70895 35.243 6.22518C8.81005 19.972 46.6987 41.1438 30.2789 54.8906C23.7449 60.3639 13.859 60.7034 6.85834 65.7523C1.08806 69.9103 -2.09407 76.6565 1.55478 83.3177C8.5979 96.216 26.7573 100.162 40.1647 101.435C64.5186 103.726 91.291 104.744 114.457 95.622Z" fill="url(#paint0_linear_570_3547)"/>
<path d="M72.917 57.9883L73.3837 58.0731C75.5476 58.4974 77.669 57.0973 78.1357 54.9334L78.6449 52.3877C79.0692 50.2239 77.669 48.1024 75.5052 47.6357L75.0384 47.5509C72.8746 47.1266 70.7532 48.5267 70.2865 50.6906L69.7773 53.2363C69.3106 55.4426 70.7532 57.564 72.917 57.9883Z" fill="#122544"/>
<path d="M57.9395 103.471H92.5611C93.0702 102.241 93.5369 100.926 93.9188 99.5257C94.8947 96.0889 95.5311 92.2704 95.9554 88.5367C95.9554 88.4943 95.9554 88.4518 95.9554 88.4094C96.6342 81.9603 96.6767 75.7233 96.5494 71.9896C96.507 69.8257 96.4221 68.5104 96.4221 68.4256C96.3372 68.3831 96.2524 68.3831 96.2099 68.3407C94.3855 67.577 92.6035 66.8981 90.9064 66.3466C89.5062 65.8799 88.1061 65.4556 86.7908 65.0737C84.4997 64.4373 82.3358 63.9706 80.3417 63.6736C78.0081 63.2917 75.8867 63.122 73.9774 63.0796C73.8926 63.0796 73.8077 63.0796 73.7228 63.0796C73.2137 63.0796 72.747 63.0796 72.2803 63.0796C67.5283 63.1644 64.3886 64.1403 62.7763 64.7343C62.5642 64.8192 62.352 64.904 62.2247 64.9889C62.2247 64.9889 62.1823 64.9889 62.1823 65.0313C62.0126 65.1161 61.8429 65.201 61.758 65.2434H61.7156C61.6732 65.2859 61.6307 65.2859 61.5883 65.3283L59.085 91.5491L57.9395 103.471Z" fill="white"/>
<path d="M23.4039 97.7859C26.883 99.3982 47.5033 100.756 49.4974 100.162C50.5157 99.8649 54.7586 96.1312 59.0438 91.5065C63.0745 87.1363 67.1901 82.0025 68.5478 78.3112C71.3905 70.7165 68.9297 63.9704 68.9297 63.9704C68.9297 63.9704 63.6685 63.9279 61.5047 65.2432C59.3408 66.5585 47.079 89.1305 45.4243 89.7245C43.7696 90.3185 24.3373 91.4216 22.1311 92.4823C22.1735 92.5672 19.9672 96.1736 23.4039 97.7859Z" fill="white"/>
<path d="M78.3044 69.8261C73.3827 69.2321 73.7221 65.2438 73.7221 65.2438V64.3104V63.9709L73.6797 57.0551L76.48 56.5884L86.0264 56.8005C85.8991 57.6915 85.8567 58.4552 85.8567 59.1765C85.8567 59.3462 85.8567 59.516 85.8567 59.6857C85.9415 61.4252 86.4082 62.9951 86.7901 65.1589C86.9598 68.2986 83.2261 70.4201 78.3044 69.8261Z" fill="#F2B4A7"/>
<path d="M85.8567 59.176C85.8567 59.3457 85.8567 59.5154 85.8567 59.6851C83.3534 62.2308 79.2802 65.3705 75.8011 64.819C75.0374 64.6917 74.3585 64.522 73.7221 64.2674V63.928L73.6797 57.0121L76.48 56.5454L86.0264 56.7576C85.8991 57.691 85.8567 58.4547 85.8567 59.176Z" fill="#E29488"/>
<path d="M73.129 60.4064C73.129 60.4064 85.3484 62.9097 86.7485 55.2726C88.1911 47.6355 90.7368 42.8411 82.9724 40.9318C75.2504 39.0225 73.1714 41.6531 72.0683 44.0715C71.0076 46.4899 69.9893 59.5579 73.129 60.4064Z" fill="#F2B4A7"/>
<path d="M70.2023 38.8101C70.7963 38.2585 71.6024 37.9191 72.4086 37.7494C73.5117 37.4948 74.6573 37.4948 75.718 37.2402C76.9484 36.9008 78.094 36.2644 79.3244 36.0522C80.9791 35.7977 82.6763 36.3916 84.2461 36.9856C85.1796 37.3251 86.113 37.6645 86.9191 38.2161C87.6828 38.7252 88.3617 39.4041 88.9557 40.0829C90.7377 42.0771 92.35 44.5379 91.9681 47.1685C91.6287 49.5445 89.8043 51.4538 88.6163 53.4479C88.4041 53.8298 86.2403 57.0968 86.4948 57.4786C86.4948 57.4786 85.6463 56.2906 85.9857 54.3389C86.3676 52.3872 84.628 52.3872 82.5066 51.4538C80.3427 50.5628 82.1671 48.0595 80.2579 46.5321C78.9001 45.4289 76.4817 45.5562 74.827 45.4713C74.0633 45.4289 73.045 45.5138 72.2813 45.2168C71.263 44.8349 70.3296 43.6045 69.8205 42.6711C69.3113 41.7376 69.0992 40.5072 69.6083 39.5314C69.8205 39.2344 69.9902 39.0222 70.2023 38.8101Z" fill="#2E338E"/>
<path d="M88.9133 103.471C88.9981 102.877 88.9133 102.156 88.4465 101.222C88.4465 101.222 87.895 100.841 87.1313 100.416C85.9857 99.7799 84.4583 99.0161 83.737 99.1434C83.6097 99.1859 83.44 99.1859 83.2278 99.2707C81.5731 99.6526 77.7121 100.883 77.1181 101.562C76.6514 102.156 75.9726 102.877 75.5059 103.514H88.9133V103.471Z" fill="#F2B4A7"/>
<path d="M86.3652 103.471H118.993C119.078 103.047 119.078 102.665 118.95 102.368C117.974 99.9074 116.065 95.8767 113.901 91.5066C112.289 88.3244 110.549 84.9726 108.852 81.9602C106.561 77.8022 104.44 74.323 103.167 72.8805C102.191 71.7773 100.961 70.8015 99.6453 70.0378C98.5422 69.3589 97.3966 68.8498 96.3783 68.3831C96.2935 68.3406 96.2086 68.3406 96.1662 68.2982C93.8751 67.3648 92.0931 66.9829 92.0931 66.9829C92.0931 66.9829 92.0506 68.0012 92.0506 69.6135C92.0506 74.1958 92.2204 83.4876 93.7054 85.7363C94.1296 86.3727 94.8934 87.3062 95.8268 88.4517C95.8692 88.4942 95.8692 88.4942 95.9116 88.5366C96.4208 89.1306 97.0148 89.8094 97.6088 90.4459C101.003 94.2644 105.331 98.7194 105.84 99.271C105.882 99.3134 105.882 99.3134 105.882 99.3134H105.84L96.6754 99.4407L93.8751 99.4831L88.0624 99.568C87.6805 99.7377 87.3411 100.035 87.1289 100.374C86.5774 101.223 86.4077 102.411 86.3652 103.471Z" fill="white"/>
<path d="M83.2272 57.9883L83.6939 58.0731C85.8578 58.4974 87.9792 57.0973 88.4459 54.9334L88.955 52.3877C89.3793 50.2239 87.9792 48.1024 85.8153 47.6357L85.3486 47.5509C83.1848 47.1266 81.0633 48.5267 80.5966 50.6906L80.0875 53.2363C79.6632 55.4426 81.0633 57.564 83.2272 57.9883Z" fill="#122544"/>
<path d="M87.0032 48.866C87.3426 48.272 87.8093 43.6049 86.494 39.8712C85.8576 38.0892 84.8393 37.0285 83.5664 36.3496C83.0997 36.0951 82.5906 35.9678 82.0814 35.9678H80.8086C85.009 37.7498 85.9849 47.1689 85.6879 48.1872C85.6879 48.1447 85.7303 48.1447 85.7303 48.1023L87.0032 48.866Z" fill="#122544"/>
<path d="M74.6996 58.7944C81.7851 58.7944 85.3067 53.1938 85.3491 53.1514L84.7127 52.7695L85.0097 52.9817L84.7127 52.7695C84.6702 52.812 81.3608 58.0731 74.6996 58.0731C74.6571 58.0731 74.6147 58.0731 74.5723 58.0731V58.8368C74.6147 58.7944 74.6571 58.7944 74.6996 58.7944Z" fill="#122544"/>
<path d="M84.3745 55.5269L84.6291 55.5694C85.6898 55.7815 86.7505 55.1027 87.0051 53.9995L87.2597 52.7267C87.4718 51.666 86.7929 50.6052 85.6898 50.3507L85.4352 50.3082C84.3745 50.0961 83.3138 50.775 83.0592 51.8781L82.8047 53.1509C82.5925 54.2541 83.3138 55.3148 84.3745 55.5269Z" fill="#2B478B"/>
<path d="M73.8063 59.0487H74.4852C74.8246 59.0487 75.1216 58.7517 75.1216 58.4123C75.1216 58.0729 74.8246 57.7759 74.4852 57.7759H73.8063C73.4669 57.7759 73.1699 58.0729 73.1699 58.4123C73.2124 58.7517 73.4669 59.0487 73.8063 59.0487Z" fill="#122544"/>
<path d="M71.5164 50.6905C71.4739 51.2845 71.7285 51.7937 72.0255 51.8361C72.3225 51.8361 72.6195 51.3694 72.6195 50.733C72.6619 50.139 72.4074 49.6298 72.1104 49.5874C71.8134 49.5874 71.5164 50.0541 71.5164 50.6905Z" fill="#2E338E"/>
<path d="M76.1414 51.0724C76.0989 51.6664 76.3535 52.1755 76.6505 52.2179C76.9475 52.2179 77.2445 51.7512 77.2445 51.1148C77.2869 50.5208 77.0324 50.0117 76.7354 49.9692C76.4384 50.0117 76.1414 50.4784 76.1414 51.0724Z" fill="#2E338E"/>
<path d="M3.0371 78.9902H31.8036C32.6946 78.9902 33.5007 79.5418 33.7977 80.3479L42.6229 101.859H62.5643C62.9885 101.859 63.3704 102.241 63.3704 102.665C63.3704 103.09 62.9885 103.471 62.5643 103.471H12.6259C11.7774 103.471 11.0137 102.962 10.6742 102.199L1.42481 81.5359C0.873245 80.3479 1.72182 78.9902 3.0371 78.9902Z" fill="#EA687A"/>
<path d="M22.1655 94.0686C23.3222 93.4008 23.519 91.5763 22.6051 89.9934C21.6913 88.4106 20.0128 87.6689 18.8561 88.3367C17.6994 89.0045 17.5026 90.829 18.4164 92.4119C19.3303 93.9947 21.0088 94.7364 22.1655 94.0686Z" fill="#F2B4A7"/>
<path d="M95.1499 87.6032C94.1316 86.797 93.4952 85.609 92.9861 84.421C92.4769 83.233 92.1375 81.9602 91.9254 80.6873C91.7981 80.0509 91.7557 79.4145 91.6708 78.778C91.6284 78.1416 91.5859 77.5052 91.5859 76.8263C91.5859 76.1899 91.5859 75.5535 91.6284 74.8746C91.6708 74.2382 91.7132 73.6018 91.7981 72.9653C91.8405 73.6018 91.8405 74.2382 91.8405 74.8746C91.8405 75.511 91.8829 76.1475 91.9254 76.7839C91.9678 77.4203 92.0102 78.0567 92.0951 78.6932C92.1799 79.3296 92.2224 79.966 92.3496 80.6025C92.5194 81.8753 92.8588 83.1057 93.2831 84.2937C93.4952 84.8877 93.7498 85.4817 94.0468 86.0333C94.3438 86.5849 94.6832 87.1364 95.1499 87.6032Z" fill="#2E338E"/>
<path d="M59.1699 90.276C59.2124 88.8759 59.2972 87.5182 59.3821 86.118C59.4669 84.7179 59.5942 83.3602 59.7215 81.96C59.8488 80.5599 59.9761 79.2022 60.1458 77.802L60.4003 75.723C60.4852 75.0442 60.5701 74.3653 60.6973 73.644C60.6973 74.3229 60.6549 75.0442 60.6125 75.723L60.4852 77.802C60.4003 79.2022 60.2731 80.5599 60.1458 81.96C60.0185 83.3602 59.8912 84.7179 59.7215 86.118C59.5518 87.5182 59.3821 88.8759 59.1699 90.276Z" fill="#2E338E"/>
<path d="M87.2578 100.247C87.3851 99.9923 87.5548 99.7802 87.767 99.6105C87.8094 99.568 87.8942 99.5256 87.9791 99.4832C88.064 99.4408 88.1488 99.4832 88.1912 99.4408L88.6155 99.3983C89.1671 99.3559 89.6762 99.3559 90.2278 99.3135C91.2885 99.3135 92.3917 99.3135 93.4524 99.4832C92.3917 99.6529 91.2885 99.7378 90.2278 99.7378C89.6762 99.7378 89.1671 99.7378 88.6155 99.6953H88.1912C88.0215 99.6953 87.9791 99.6529 87.8518 99.7378C87.6397 99.865 87.47 100.035 87.2578 100.247Z" fill="#2E338E"/>
<path d="M61.1674 36.5188V43.4346C61.1674 44.4105 60.3612 45.2166 59.3854 45.2166H58.8762L60.4037 50.0959L55.3122 45.1742H45.7234C44.7475 45.1742 43.9414 44.368 43.9414 43.3922V36.4763C43.9414 35.5005 44.7475 34.6943 45.7234 34.6943H59.3854C60.3612 34.7368 61.1674 35.5429 61.1674 36.5188Z" fill="white"/>
<path d="M48.6075 40.8043C49.0293 40.8043 49.3712 40.4623 49.3712 40.0406C49.3712 39.6188 49.0293 39.2769 48.6075 39.2769C48.1857 39.2769 47.8438 39.6188 47.8438 40.0406C47.8438 40.4623 48.1857 40.8043 48.6075 40.8043Z" fill="#2E338E"/>
<path d="M52.5547 40.8043C52.9765 40.8043 53.3184 40.4623 53.3184 40.0406C53.3184 39.6188 52.9765 39.2769 52.5547 39.2769C52.1329 39.2769 51.791 39.6188 51.791 40.0406C51.791 40.4623 52.1329 40.8043 52.5547 40.8043Z" fill="#2E338E"/>
<path d="M56.4571 40.8043C56.8789 40.8043 57.2208 40.4623 57.2208 40.0406C57.2208 39.6188 56.8789 39.2769 56.4571 39.2769C56.0353 39.2769 55.6934 39.6188 55.6934 40.0406C55.6934 40.4623 56.0353 40.8043 56.4571 40.8043Z" fill="#2E338E"/>
<defs>
<linearGradient id="paint0_linear_570_3547" x1="42.9066" y1="-2.84391" x2="74.5174" y2="109.458" gradientUnits="userSpaceOnUse">
<stop stop-color="white"/>
<stop offset="0.248" stop-color="#E1D2E7"/>
<stop offset="0.6" stop-color="#BA99C7"/>
<stop offset="0.861" stop-color="#A175B3"/>
<stop offset="1" stop-color="#9867AC"/>
</linearGradient>
</defs>
</svg>
